<?xml version="1.0" encoding="utf-8"?>
<!-- Generator: Adobe Illustrator 21.0.2, SVG Export Plug-In . SVG Version: 6.00 Build 0)  -->
<svg version="1.1" id="Layer_2" xmlns="http://www.w3.org/2000/svg" xmlns:xlink="http://www.w3.org/1999/xlink" x="0px" y="0px"
	 viewBox="0 0 1310 1310" style="enable-background:new 0 0 1310 1310;" xml:space="preserve">
<style type="text/css">
	.st0{fill:#FFFFFF;}
</style>
<g>
	<path class="st0" d="M327.4,746.2c1.7-0.7,2.3-2.3,3.3-3.5c7.6-9.7,16.8-17.6,27.7-23.3c10.2-5.4,21.2-8.4,32.7-8
		c16.9,0.6,31.3,7.1,43,19.5c7,7.4,11.4,16.2,12.9,26.3c1.2,8.5,0.4,16.9-2.1,25.1c-2.9,9.6-7.6,18.3-13.2,26.5
		c-5.9,8.6-12.7,16.5-19.9,23.9c-36.1,37.1-79.2,62.2-129.3,75.4c-3.5,0.9-7.1,1.8-10.7,2.7c-0.7,1.7,0,3.2,0.4,4.7
		c5.1,17.8,9.9,35.7,15.2,53.5c6.2,20.8,13.3,41.4,20.7,61.8c2.2,6.2,4.9,12.2,8.7,17.6c2,2.9,4.3,5.5,7.1,7.8
		c5.2,4.3,10.9,5.3,17.5,3.2c22.9-7.6,44.1-3.8,63.8,10c2.2,1.6,4.2,3.5,6.2,5.3c0.5,0.5,0.9,1.2,1.3,1.8c-0.5,0.3-0.7,0.7-1,0.7
		c-35.3,3.6-70.6,7.2-105.9,10.8c-0.4,0-0.9-0.1-1.6-0.3c-0.3-1-0.7-2-1-3.1c-4.7-17.8-9.5-35.5-15.2-53
		c-7.1-21.6-15.5-42.7-26.8-62.5c-9.2-16.1-20.1-30.8-33.7-43.5c-4.3-4-9-7.6-13.6-11.4c-1-0.8-2-1.6-3-2.4c0.4-1.8,1.8-2.3,2.9-3.2
		c6.3-5,12.7-9.8,18.9-14.8c8.6-7,16.6-14.6,23.6-23.1c8.9-10.7,15.7-22.6,19.4-36c3.3-11.6,3.7-23.3,0.9-35.1
		c-4.8-20.4-3.9-40.6,2.4-60.6c0.3-1.1,0.6-2.1,1-3.5c-0.7-0.2-1.2-0.5-1.8-0.6c-15.9-1.6-28.9-8.8-39.7-20.3
		c-12-12.8-19-28-20.4-45.5c-1.2-15.8,3.2-30.1,13.7-42.2c3.8-4.4,8.4-7.9,13.9-10.1c7.9-3.2,15.9-3,24-0.5c6.2,1.9,11.7,5,17,8.7
		c6.9,4.7,13,10.3,19,16.2c1.1,1.1,2.2,2.2,3.6,3.6c0.8-0.7,1.5-1.3,2.1-2c42.8-51.4,97.6-83.8,161.8-100.8
		c16.4-4.4,33.1-7.1,50-8.9c19.1-2.1,38.3-2.4,57.5-1.4c44.3,2.4,87,12,128.3,28c14.8,5.7,29.4,11.6,44.2,17.2
		c10.5,4,21.2,7.2,32.1,9.6c6.7,1.4,13.5,2.4,20.4,2.4c4.7,0,9.3-0.5,13.8-1.7c14.7-3.6,23.9-12.9,27.9-27.4
		c2.5-9.3,2.1-18.7-0.4-28c-1.8-6.5-4.3-12.7-7.7-18.6c-3.3-5.6-6.7-11.3-10.5-16.6c-19.7-27.9-41.6-53.9-65.4-78.4
		c-15.4-15.9-31.8-30.7-48.3-45.3c-10.7-9.4-21.2-19-31.2-29.2c-9.8-10-18.9-20.5-26.6-32.1c-7-10.4-12.9-21.3-16.6-33.4
		c-2.7-8.6-4.1-17.4-3.5-26.5c1-15.2,7.6-27.2,20-36c8.7-6.1,18.5-9.4,28.9-10.9c18.6-2.8,36.3,0.7,53.6,7.3
		c18.1,7,34,17.6,48.4,30.6c15.1,13.6,27.5,29.4,38.3,46.5c10.8,17.1,19.9,35,28,53.5c11,25.4,21.8,50.8,32.6,76.3
		c8.7,20.5,17.3,40.9,26,61.4c0.6,1.4,1.3,2.9,2.4,5.3c0-2.1,0.1-3.1,0-4c-3.5-24.5-10.5-48.1-19.2-71.1
		c-8.1-21.4-17.5-42.2-26.9-63.1c-9.1-20.1-18.1-40.2-25.9-60.9c-6.8-18.1-12.7-36.6-16.3-55.6c-3.1-16.1-4.7-32.3-4.1-48.7
		c0.1-3.7,0.4-7.4,0.8-11c0.9-7,4.4-12.7,10-16.9c11.5-8.6,24.1-10.6,37.6-5.8c7.5,2.7,13.9,7.2,19.6,12.7
		c6.3,6,11.5,12.9,16.1,20.2c8.5,13.4,15.6,27.5,21.8,42.1c10.9,25.6,18.3,52.2,22.4,79.7c2.2,15.2,3.3,30.5,3.3,45.9
		c-0.1,14.6-0.2,29.1,0,43.7c0.2,13.4,1.4,26.8,4.5,40c3.8,15.5,10.4,29.5,21.6,41.1c5.5,5.7,11.7,10.4,18.4,14.6
		c7.2,4.5,14.8,8.3,22.5,11.8c5.1,2.3,10.2,4.7,15.3,6.9c18.9,8.2,36.4,18.6,52.8,31c11,8.3,21.7,16.9,32.5,25.4
		c1.3,1,2.4,2.1,3.5,3.2c2.7,2.9,4.3,6.4,4.3,10.4c0,1.8,0,3.5-0.3,5.3c-2.2,13.4-4.8,26.8-9.3,39.6c-2.9,8.2-6.5,16-11.6,23
		c-7.6,10.5-17.6,17.6-30.2,20.7c-4.5,1.1-9.1,2-13.7,2.3c-6.8,0.5-13.7,0.6-20.6,0.4c-30-0.6-59.3,3.3-87.8,13.1
		c-24.9,8.6-47.8,20.6-68.6,36.8c-7.2,5.6-13.8,11.9-19.8,18.8c-12.4,14.5-19.6,31.3-22.4,50.1c-2.4,16.1-2.2,32.2-1.5,48.4
		c0.5,11.5,1.6,23,3.4,34.4c3.3,20.6,8.6,40.7,18.1,59.4c5.7,11.2,12.8,21.4,22,30.1c8.1,7.7,17.3,13.7,27.6,17.8
		c5,2,10.1,3.9,15.2,6c5,2.1,9.8,4.6,14,8.2c3.6,3.1,6.3,6.8,7.3,11.6c1.1,5.2,0.5,10.2-1.9,14.9c-2.8,5.4-7.1,8.4-14.2,7
		c-15.6-3.1-29.9-9.1-43.2-17.8c-16.3-10.6-29.9-24-41.7-39.3c-9.7-12.6-17.9-26.1-25.3-40.2c-8.4-16-15.7-32.5-23.1-49
		c-3.2-7.2-6.3-14.4-9.7-21.4c-1.9-4-4.3-7.9-6.7-11.6c-1.9-3-4.4-5.5-7.3-7.5c-7.1-5-15.4-5-22.3,0.3c-5.9,4.4-9.3,10.4-10.7,17.6
		c-1.1,5.9-0.6,11.8,0.5,17.6c0.6,3.1,1.4,6.2,2.3,9.3c5.9,20.3,12.4,40.3,21.3,59.5c5.2,11.4,11.3,22.2,18.6,32.4
		c8.2,11.4,17.7,21.4,29,29.8c5,3.7,10,7.4,15,11.2c5.3,4.1,10.4,8.5,14.6,13.8c3.9,5,6.9,10.4,8,16.6c-1,1.4-2.5,1.5-3.8,1.9
		c-12.1,2.9-24.2,2.2-35.9-1.8c-19.5-6.6-34.4-18.6-43.9-37.1c-2.6-5-4.4-10.3-5.3-15.9c-1.5-8.6-4.6-16.6-8.9-24.2
		c-4.3-7.5-9.5-14.4-14.9-21.2c-5.5-6.8-11.3-13.5-16.6-20.5c-4.1-5.3-7.9-10.9-11.5-16.5c-4.6-7.2-7.7-15.1-9.2-23.5
		c-0.7-3.9-1.1-7.9-1.9-11.8c-4.2-20.7-14.3-38.2-28.8-53.3c-17.6-18.1-39-29.2-63.6-34.4c-13.1-2.7-26.3-3.6-39.6-2.7
		c-36.9,2.6-69.7,15.3-97.2,40.5c-13,11.9-23.4,25.7-30.5,42c-4.9,11.3-7.7,23-8.1,35.3c-0.4,11.6,1.6,22.9,5.1,34
		c3.8,12.3,9.3,23.8,15.1,35.2c2.3,4.6,4.7,9.1,7.2,13.6c3.8,6.9,8.1,13.5,13.8,18.9c2.3,2.2,4.9,4.2,7.6,5.8
		c5.1,3.1,10.7,3.7,16.6,2.5c26.3-5.6,49,1.6,68.1,20.3c2.5,2.4,4.5,5.4,6.7,8.1c0.4,0.4,0.5,1.1,0.8,2.1c-3,0.1-5.7,0.3-8.4,0.4
		c-16.6,0.2-33.3-0.3-49.9-1.7c-10.5-0.9-21-2.3-31.4-3.6c-1.9-0.2-3.8-0.7-5.6-1.1c-7.5-1.9-14-5.6-18.7-11.8
		c-3-3.9-5.8-8-8.4-12.2c-13.7-22.1-27.4-44.4-41.1-66.5c-9.9-16.1-19.8-32.1-29.7-48.2c-2.7-4.4-5-8.9-6.1-14
		c-0.3-1.4-0.5-2.8-0.5-4.3c-0.1-4.1,1.4-7.5,4.9-9.8c4.1-2.8,8.2-5.6,12.2-8.5c12.1-8.5,23.8-17.3,34.3-27.7
		c11.6-11.4,21.3-24.3,27.6-39.4c4.9-11.7,7.4-23.8,6.6-36.5c-0.6-10.6-3.7-20.5-9.2-29.4c-10.9-17.7-26.4-29.3-47-33.7
		c-12.1-2.6-23.9-1.3-35.3,3.2c-19.8,7.8-33.9,21.4-41.8,41.2C327.9,742.3,326.9,744,327.4,746.2z M872.5,483.1c0.1-0.9,0.4-2,0.2-3
		c-0.2-1.4-0.7-2.8-1.3-4.1c-3.9-9.6-7.6-19.3-11.8-28.8c-12.9-29.4-27.2-58.2-41.7-86.9c-7.3-14.6-15.2-28.9-23.8-42.7
		c-8.5-13.6-17.7-26.6-28.3-38.7c-11.7-13.3-24.6-25.2-39.6-34.6c-11.3-7.1-23.3-12.6-36.4-15.6c-4.6-1.1-9.2-1.4-13.8-0.6
		c-5.5,1-9.8,3.9-12,9.2c-0.8,1.9-1.4,3.9-1.8,5.9c-1.6,8.3,0.1,16.2,3.3,23.9c2.5,6.1,5.9,11.7,10,16.9c4.7,5.9,9.5,11.7,14.5,17.2
		c29.7,33.1,59.5,66,89.3,99c13.6,15.1,27.1,30.2,41.8,44.3c12.2,11.8,25,22.9,39.1,32.4c2.9,2,5.9,3.8,8.9,5.7
		C870,483.3,871,483.8,872.5,483.1z M1005.2,537.8c-4.7,4.4-6.2,6.7-7.2,12c-1.8,9.2,0.3,17.5,6.1,24.7c6.1,7.7,15.3,9.5,24.1,5
		c4.5-2.3,8-5.8,10.7-10.1c3.1-4.9,5-10.3,6.3-16c1.3-6-0.4-11-5.1-15c-6-5.1-13-7.4-20.9-6.4c-3.3,0.4-6.5,1.5-10.1,2.4
		c-0.4-0.3-1-1-1.8-1.5c-1.2-0.8-2.4-0.5-3.3,0.7C1003,534.9,1003.2,535.6,1005.2,537.8z M883.4,236.2c-2-5.5-4.6-9.4-8-12.8
		c-1.2-1.2-2.3-2.7-4.4-2.8c-1.2,3,0.1,5.4,1.5,7.7C874.7,232.2,877.9,234.9,883.4,236.2z M859.8,572.4c1.7,1.1,3-0.2,4.3-0.8
		c4.9-2.5,7.7-5.1,8.9-7.9c-3-1.1-4-1-7.4,1.1C862.7,566.5,859.8,568.3,859.8,572.4z M771.7,650.8c0.5,0.7,0.6,1,0.9,1.2
		c0.2,0.2,0.6,0.4,0.9,0.4c4.1,0,7.8-1,11.2-3.3c0.9-0.6,1.5-1.6,0.9-3.2C780.1,644.9,775.8,646.8,771.7,650.8z M519.7,584.7
		c2.2-0.1,4.4-0.2,6.6-0.5c0.3,0,0.8-0.6,0.9-0.9c0.1-0.4-0.1-1.1-0.3-1.2c-1.1-0.6-2.3-1.3-3.4-1.3c-3.2-0.1-6.3,0-9.5,0.1
		c-0.5,0-1,0.1-1.4,0.3c-0.4,0.2-0.8,0.7-0.8,1c0,0.6,0.2,1.4,0.6,1.7c0.6,0.5,1.4,0.8,2.1,0.9C516.1,584.8,517.8,584.7,519.7,584.7
		z M402.3,620.2c4-1.4,6.9-2.4,9.7-3.9c0.8-0.4,1.5-1.2,1.9-2c0.3-0.6,0.3-1.7,0-2.2c-0.3-0.5-1.4-0.9-2-0.7
		C407.2,612.1,404.1,614.6,402.3,620.2z M879.5,249c-1.7,1.9-1.5,4.1-1.3,6.3c0.1,1.8,0.7,3.5,2.1,4.7c0.7,0.6,1.6,0.9,2.5,1.1
		c0.9,0.2,1.9-0.9,1.7-1.8C884.2,257.5,881.3,251.5,879.5,249z M1071.5,645.4c2.5-0.2,6.9-2.8,8.1-4.5c0.2-0.3,0.3-0.6,0.4-0.9
		c0.3-0.9-0.4-2.1-1.4-2c-3.2,0.2-5.9,1.4-7.9,3.8c-0.4,0.4-0.7,1.3-0.5,1.7C1070.5,644.3,1071.2,645,1071.5,645.4z M913.3,243.9
		c1.7-2.3,1.1-4.5,0.5-6.7c-0.6-2-1.5-3.9-3.5-4.8C907.5,235.9,908.6,240.1,913.3,243.9z M394.1,728.8c1.5,2,3.3,3.4,5.3,4.2
		c1.1,0.5,2.5,0.6,3.7,0.5c0.6-0.1,1.3-0.9,1.6-1.5c0.2-0.4,0.1-1.4-0.3-1.7c-2.5-2.1-5.4-3.5-8.8-2.6
		C395.2,727.7,394.8,728.2,394.1,728.8z M1102.5,575.8c-0.5,0-0.9-0.2-1.1-0.1c-1.5,0.9-2.6,2.2-2.8,4.1c-0.2,2.3-0.6,4.7-0.8,7
		c0,0.3,0.4,0.9,0.7,1c0.3,0.1,1,0,1.2-0.3C1102.4,584,1103.9,580.2,1102.5,575.8z M1117.1,565c-0.2-0.8-0.4-2.1-0.9-3.2
		c-0.5-0.9-1.6-1.1-2.5-0.7c-0.5,0.2-1.3,0.8-1.2,1.2c0.1,2.5,0.5,5,0.8,7.4c0,0.1,0.1,0.3,0.3,0.4c0.5,0.3,1.1,0.7,1.7,0.7
		c0.5-0.1,1.2-0.6,1.3-1.1C1116.7,568.4,1116.8,566.9,1117.1,565z M571.4,637.3c-0.6-0.7-0.8-1.1-1.2-1.3c-2.5-1.5-5.2-1.1-7.8-0.5
		c-0.9,0.2-1.4,1.4-1.2,2.3c0.3,1.3,1.2,2.3,2.6,2.4C566.6,640.2,569.2,639.7,571.4,637.3z M848.8,508.4c-0.7,0.4-1,0.4-1,0.5
		c-1,3.3,0.1,7.2,2.6,9c0.5,0.4,1.7,0.5,2.2,0.2c0.5-0.3,0.8-1.4,0.7-2C852.8,512.9,851.2,510.4,848.8,508.4z M888.3,196.3
		c1-2.3,0.2-4.3-1-6.2c-0.7-1.3-1.8-2.3-3.6-1.9c-1.1,2.1-0.3,4,0.7,5.8C885.1,195.4,886.2,196.5,888.3,196.3z M287,861.1
		c-1.6-0.6-2.8-1-3.9-1.4c-1.8,1.6-4,2.6-5,5c1.4,1.2,2.9,1.2,4.2,0.8C284.3,864.9,285.8,863.6,287,861.1z M728.9,814.4
		c3.7-0.5,5.8-2.2,7-5c0.3-0.8,0.1-1.7-0.6-2.1c-0.5-0.3-1.3-0.3-1.7-0.1C731,808.7,729.3,810.8,728.9,814.4z M1056.9,580.4
		c-2-0.9-3.9-0.7-5.8-0.8c-0.8,0-1.7,0.2-1.8,1.1c-0.1,0.7,0,1.6,0.4,2.2c0.9,1.3,2.7,1.7,4.2,1
		C1055.2,583.3,1056.2,582.4,1056.9,580.4z M376.6,677.6c-0.5-0.1-0.9-0.4-1.1-0.3c-2.7,1.4-3.7,4-2.5,6.6c0.2,0.5,0.9,1,1.4,1.1
		c0.5,0.1,1.2-0.4,1.5-0.8C377.6,682.2,377,679.9,376.6,677.6z M779.6,689.1c-2,0.5-3.1,1.9-4,3.4c-0.8,1.5-1.6,3.1-0.7,5
		c2.1,0,3.2-1.4,4-3C779.8,693,780.7,691.2,779.6,689.1z M559.1,704.2c5,0.5,6.2-0.1,7.8-3.2c-2.2-1.4-2.3-1.4-3.8-1
		C561.2,700.7,559.8,701.8,559.1,704.2z M716.8,833.9c-1.6,0.9-2.6,1.2-3.4,1.9c-0.7,0.6-1.3,1.4-1.6,2.3c-0.6,1.4-0.3,2.7,1.4,3.6
		C715.9,840,717.4,837.9,716.8,833.9z M1103.2,647.9c-0.7-0.7-1.2-1.4-1.8-1.8c-0.3-0.2-0.9-0.3-1.3-0.2c-1.3,0.4-2,1.4-2.3,2.7
		c-0.3,1.2-0.8,2.5,0.8,3.2C1100.5,651.2,1101.9,650,1103.2,647.9z M860.5,180.9c0.3-0.1,0.6-0.1,0.9-0.3c1.5-1.1,2.1-2.7,1.3-4.5
		c-0.2-0.4-1.1-0.8-1.5-0.7c-1.6,0.5-2.6,1.7-2.8,3.4C858.3,179.8,859.6,181.1,860.5,180.9z M1069.9,595.7c0.2-2.8-0.4-3.9-2.2-3.7
		c-1.2,0.1-2.4,0.6-3.5,1.1c-0.9,0.4-0.6,1.9,0.3,2.3C1066.3,596.2,1068.1,596.1,1069.9,595.7z M629.2,666.3c2,1.5,2.3,1.6,3.2,1.2
		c1.1-0.5,1.8-1.3,1.9-2.4c0-0.6-0.1-1.3-0.5-1.7c-0.4-0.3-1.2-0.4-1.7-0.3C630.6,663.6,629.4,664.5,629.2,666.3z M264.2,894.5
		c0.1-1.9-1.1-3.1-2.9-3c-1,0-1.5,0.6-1.6,1.4c-0.3,1.7,0.6,3.2,2.2,3.8c0.9,0.3,1.5-0.3,1.9-1C264,895.4,264.1,894.9,264.2,894.5z
		 M764.6,769.3c0.1-1.3-0.9-2.5-2.2-2.6c-1.1-0.1-2.1,0.7-2.3,2c-0.2,1.6,0.5,2.8,1.8,2.8C763.4,771.5,764.5,770.6,764.6,769.3z
		 M367.4,733.9c-0.3-0.3-0.7-1-1.4-1.3c-0.4-0.2-1.2,0-1.7,0.3c-1,0.6-1.5,1.7-1.4,2.8c0,0.4,0.3,1,0.6,1.1
		C365.3,737.8,367.6,736.2,367.4,733.9z M623.1,640.2c1.2,1.8,2.5,2.2,3.9,2.4c1,0.2,1.9-0.8,1.5-1.7c-0.5-1.4-1.3-2.5-3.1-2.8
		C624.7,638.7,623.9,639.4,623.1,640.2z M391.3,643.5c-2-1-3-0.4-4,0.5c-0.7,0.7-0.8,1.9-0.3,2.5c0.7,0.8,2.3,0.8,2.9-0.1
		C390.6,645.6,390.9,644.6,391.3,643.5z M759,772.9c-1.5-1.7-2.7-1.7-4.3-0.9c-0.5,1.5-0.5,2.9,0.2,4.6
		C756.8,775.8,757.8,774.4,759,772.9z M751.5,778.4c-0.2-0.3-0.4-0.9-0.7-1c-1.1-0.4-2.1-0.1-2.9,0.8c-0.6,0.7-1,1.5-0.5,2.5
		c0.4,0.8,1.1,1.3,1.8,1C750.5,781.1,751.4,780.1,751.5,778.4z M250.7,685.9c0.1-1.2-1.1-2.6-2.2-2.7c-0.7,0-1.6,1-1.7,2
		c-0.2,1.2,0.6,2.4,1.5,2.6C249.4,688,250.6,686.9,250.7,685.9z M410.2,641.6c-0.5-0.4-1.1-1.1-1.9-1.3c-1.1-0.3-2.3,1-2.3,1.9
		c0.1,1,1.3,2.2,2.2,2.2C409.2,644.4,410.3,643.1,410.2,641.6z M331.5,840.9c2.3,2,2.6,2.1,3.7,1.2c1.4-1.2,1.5-1.7,0.2-3.6
		C334.2,839.3,332.9,840.1,331.5,840.9z M808.7,771.5c-1.7,0.6-1.8,2-1.6,3.4c0.1,0.9,0.6,1.7,1.4,1.5c0.6-0.1,1.3-0.9,1.5-1.5
		C810.4,773.6,810.4,772.2,808.7,771.5z M893.7,501.9c-0.6-0.7-0.9-1.5-1.5-1.8c-0.8-0.3-1.4,0.4-1.8,1.1c-0.5,0.9-0.4,1.8,0.4,2.6
		c0.3,0.3,1,0.5,1.2,0.4C892.5,503.5,893,502.7,893.7,501.9z M1095.9,570.3c-2-1-3.3-1.8-5.1-1.1c-0.1,2,1.3,2.7,2.7,3.8
		C1094.3,572.1,1094.9,571.4,1095.9,570.3z M377.6,643.2c-0.4-0.3-0.9-1-1.5-1.1c-1.5-0.3-2.8,0.7-2.7,1.8c0.1,0.9,1,1.7,1.9,1.7
		C376.5,645.6,377.4,644.8,377.6,643.2z M844.5,167.2c1.1-2.8,0.4-4.3-1.2-5.2c-0.4-0.2-1.2,0-1.6,0.3c-0.2,0.1-0.4,1-0.2,1.2
		C842.2,164.6,843.2,165.6,844.5,167.2z M381.4,653.9c-0.5-0.4-1.1-1.1-1.8-1.3c-0.9-0.2-1.8,1.2-1.9,2.3c0,0.7,0.8,1.5,1.5,1.4
		C380.4,656.2,381.3,655.4,381.4,653.9z M816.4,742.8c-0.4-0.4-1-1.2-1.7-1.4c-0.9-0.3-1.8,0.9-1.8,2.1c0,1.1,0.7,1.9,1.6,1.9
		C815.5,745.3,816.4,744.3,816.4,742.8z M420.7,615.9c0.3-0.3,1.2-0.7,1.3-1.3c0.3-1-1.4-2.3-2.6-2.1c-0.9,0.2-1.2,0.9-1.1,1.8
		C418.4,615.4,419.2,616,420.7,615.9z M673.5,597.3c-1.3-0.7-2.6-1.3-4-2c-0.8,1.6-0.6,2.8,0.8,3.5
		C671.6,599.4,672.7,599,673.5,597.3z M344.8,747.9c2.5,0.6,3.1,0.5,3.4-0.5c0.3-1.2-0.2-2.7-1-2.8c-1.2-0.2-1.7,0.7-2,1.6
		C344.9,746.7,344.9,747.4,344.8,747.9z M766.6,718.3c-0.6-1.5-1.9-1.4-3.1-1.2c-0.4,0.1-1,0.5-0.9,0.8c0,0.5,0.2,1.3,0.6,1.5
		C764.6,720.2,765.8,719.9,766.6,718.3z M742.4,730.9c1.6-0.5,2.3-1.5,2.1-3.2c-1-0.9-2.1-0.9-3,0.1
		C740.7,728.6,741,729.3,742.4,730.9z M904.6,338c-1.5,0.6-1.6,1.9-1.3,3.2c0.1,0.4,0.8,1,1.3,1c0.5,0,1.2-0.5,1.4-1
		C906.3,339.9,906,338.7,904.6,338z M497.3,631.6c0.6,1.4,1.6,1.7,2.7,1.4c0.5-0.1,1.2-0.7,1.2-1.1c0-0.7-0.4-1.4-0.9-1.9
		c-0.3-0.3-1.2-0.2-1.6,0.1C498.2,630.4,497.8,631.1,497.3,631.6z M884.3,286.7c0.5-0.2,0.8-0.3,1-0.5c0.3-0.4,0.5-0.8,0.6-1.2
		c0.2-1.5-0.4-2.7-1.5-3.1c-0.1,0-0.3,0-0.4,0.1c-1.2,0.7-0.9,1.9-0.7,2.8C883.4,285.4,883.9,286,884.3,286.7z M682.5,773.8
		c-0.2-0.2-0.5-0.7-0.9-0.7c-1.4-0.1-2.9,1.7-2.7,3.2c0,0.2,0.4,0.6,0.6,0.6C681.1,777.1,682.7,775.5,682.5,773.8z M854.9,192.7
		c-0.7-0.8-1.1-1.5-1.7-1.8c-0.8-0.4-1.8,0.3-2,1.3c-0.2,1,0.5,2.2,1.3,2C853.3,194,853.9,193.4,854.9,192.7z M690.1,770
		c-0.6-1.5-1.9-1.6-3.1-1.3c-0.5,0.1-1.1,0.8-1.1,1.3c0,0.5,0.6,1.2,1,1.3C688.3,771.7,689.4,771.4,690.1,770z M339.7,759.4
		c-0.1-0.5,0-0.9-0.2-1.1c-0.4-0.4-0.8-1.1-1.3-1.1c-0.4,0-1.1,0.6-1.2,1.1c-0.2,0.5-0.2,1.2,0,1.8c0.1,0.3,0.6,0.7,1,0.8
		c0.4,0.1,0.9-0.2,1.2-0.4C339.5,760.2,339.6,759.7,339.7,759.4z M1099.1,606.9c-0.8-1.5-2-1.9-3.5-1.1c-0.4,0.2-0.6,1.1-0.6,1.6
		c0,0.3,0.6,0.7,1,0.8C1097.2,608.5,1098.5,608.5,1099.1,606.9z M790.2,710.2c1.5-1.3,3.1-2.1,2.2-4.2
		C788.6,707.6,788.6,707.6,790.2,710.2z M1052.1,558.2c-0.5-0.4-1-1.1-1.6-1.2c-0.8-0.1-1.4,0.5-1.4,1.5c0,0.6,0.1,1.2,0.3,1.8
		c0.2,0.4,0.7,0.7,1.1,0.7c0.4,0,0.9-0.4,1.1-0.7C1051.9,559.8,1051.9,559.1,1052.1,558.2z M673.6,780.3c-0.8-0.9-1.1-1.6-1.7-1.9
		c-0.8-0.4-2.1,0.6-1.9,1.4c0.1,0.7,0.8,1.7,1.2,1.7C671.8,781.6,672.5,780.9,673.6,780.3z M741.6,787.2c1.3-0.4,2-1.3,2-2.8
		c-1.3-1-2.4-0.5-3.1,0.7C739.9,786.1,740.7,786.8,741.6,787.2z M871.1,522.4c-1.1-0.6-1.7-1.2-2.3-1.2c-0.9-0.1-1.4,0.6-1.6,1.4
		c-0.1,0.7,0.8,1.4,1.7,1.2C869.5,523.7,870.1,523.1,871.1,522.4z M728.8,712.6c-0.5-0.4-0.9-1-1.4-1.1c-0.3-0.1-1,0.2-1.2,0.5
		c-0.3,0.5-0.4,1.2-0.4,1.7c0,0.4,0.4,0.9,0.8,1c0.3,0.1,1-0.1,1.2-0.3C728.3,713.9,728.5,713.3,728.8,712.6z M719.6,715.5
		c-0.3,0.4-0.9,0.9-1.1,1.5c-0.2,0.9,0.8,1.8,1.7,1.7c1-0.1,1.7-1,1.4-1.9C721.4,715.9,720.9,715.4,719.6,715.5z M474.6,646.4
		c-0.8,0.9-1.5,1.5-2,2.2c-0.1,0.1,0.7,1.1,1.1,1.2c1,0.2,2.1-0.7,2-1.6C475.7,647.7,475.1,647.2,474.6,646.4z M885.1,293.9
		c-1-0.7-1.6-1.3-2.3-1.6c-0.1-0.1-0.9,0.8-1,1.2c-0.1,1,0.9,1.9,1.7,1.7C884,295.1,884.4,294.6,885.1,293.9z M864.2,512.5
		c-0.4,0.6-0.9,1.3-1,2c-0.1,0.5,0.4,1,0.6,1.6c0.5-0.3,1.2-0.5,1.5-0.9C866,514,865.8,513.1,864.2,512.5z M400.7,622
		c-1.6,0.4-2.8,1.3-3,3.1C400.9,625.4,401.5,624.7,400.7,622z M664.2,755.7c-0.9-1-1.3-1.7-1.9-2c-0.6-0.4-1.9,0.3-1.8,0.9
		c0.1,0.5,0.5,1.2,1,1.3C662.2,756.1,662.9,755.8,664.2,755.7z M490.2,585.4c1.2-0.2,2.2-0.1,2.1-1.2c0-0.5-0.7-1-1.1-1.3
		c-0.7-0.5-1.6-0.4-2.1,0.3c-0.3,0.3-0.5,1.1-0.3,1.2C489.2,585,489.9,585.3,490.2,585.4z M382.8,654.1c1.2-1.1,1.7-1.4,2.1-1.9
		c0.6-0.7,0.3-1.5-0.2-2.1c-0.2-0.2-0.7-0.3-0.8-0.2c-0.4,0.4-0.9,0.8-1,1.4C382.6,651.9,382.8,652.5,382.8,654.1z M1082.2,597.1
		c-0.3-1.3-1-1.5-1.8-1.4c-0.9,0-1.4,0.5-1.5,1.4c-0.1,0.7,0.8,1.6,1.5,1.4C1081.1,598.1,1081.7,597.5,1082.2,597.1z M846,219.1
		c0.5,0.5,1,1,1.5,1.4c0.4-0.4,0.9-0.8,1.1-1.3c0.2-0.5,0.1-1.2,0-1.8c0-0.2-0.4-0.6-0.6-0.6c-0.4,0-1,0.1-1.2,0.4
		C846.5,217.7,846.4,218.3,846,219.1z M905.4,243.9c-1.2-0.8-1.8-1.3-2.4-1.5c-1-0.4-1.8-0.1-1.8,0.7c-0.1,0.9,0.5,1.6,1.3,1.6
		C903.2,244.7,904,244.3,905.4,243.9z M770.5,714.5c-0.6-0.7-1-1.5-1.6-1.8c-0.7-0.4-1.5,0.5-1.6,1.3c0,1.1,0.8,2,1.7,1.8
		C769.5,715.6,769.8,715,770.5,714.5z M952.5,564.2c-1.5-0.1-2.4,0.6-2.2,1.5c0.1,0.5,0.7,1,1.2,1.1c1,0.2,2-0.6,1.8-1.4
		C953.2,564.9,952.7,564.4,952.5,564.2z M237.6,903.2c0.5-0.4,0.9-0.6,1.1-1c0.1-0.2,0-0.7-0.2-0.8c-0.9-1-2.1-1.2-2.9-0.5
		c-0.2,0.2-0.3,0.7-0.2,0.8C236.1,902.2,236.9,902.7,237.6,903.2z M862.1,233.4c-0.7,0.5-1.3,0.8-1.6,1.2c-0.4,0.6,0.2,1.6,1,1.8
		c0.7,0.2,1.6-0.5,1.5-1.3C862.9,234.6,862.5,234.1,862.1,233.4z M909.2,273.1c1.9-1.6,2-2.1,0.7-3.3c-0.3-0.3-1-0.3-2.1-0.6
		C908.4,270.9,908.8,271.9,909.2,273.1z M897.3,290c0.1-1.2-0.7-2.1-1.5-1.8c-0.5,0.2-1,0.7-1.2,1.2c-0.3,0.8,0.6,1.6,1.5,1.4
		C896.6,290.6,897.1,290.1,897.3,290z M981.6,506.9c-0.9,1.1-1,2.2,0.2,3.1c0.2,0.2,1,0,1.1-0.2
		C983.3,508.5,983.3,507.4,981.6,506.9z M363.7,682.9c0.2-0.2,0.7-0.5,0.9-1c0.2-0.7-0.7-1.7-1.3-1.5c-0.5,0.2-1,0.6-1.3,1.1
		C361.7,682.1,362.4,682.8,363.7,682.9z M1115.1,578.6c-0.8-0.8-1.2-1.4-1.8-1.6c-0.3-0.1-1,0.6-1.2,1.1c-0.3,0.7,0.4,1.6,1.2,1.5
		C1113.9,579.5,1114.3,579.1,1115.1,578.6z M326.2,729.9c-0.1,0.8-0.3,1.6-0.1,2.2c0.2,0.6,0.9,1,1.5,1.7
		C328.3,731,328.3,731,326.2,729.9z M914.4,267.4c0.4-1.2,0-2-0.9-2c-0.5,0-1.2,0.3-1.4,0.7c-0.3,0.8,0.3,1.5,1,1.7
		C913.6,267.9,914.1,267.5,914.4,267.4z M276,694.6c-1.2,1.3-1.5,2.2-0.1,3.2C277.1,696.9,277.2,696,276,694.6z M603.1,756.6
		c0.5-0.2,1-0.3,1.3-0.5c0.3-0.3,0.5-0.8,0.7-1.2c0-0.1-0.4-0.5-0.5-0.5c-0.5,0.2-1.2,0.4-1.5,0.8C602.8,755.4,603,756,603.1,756.6z
		 M835.2,681.6c-0.6-0.2-1-0.5-1.4-0.4c-0.4,0-0.8,0.3-1.2,0.6c-0.1,0.1,0.1,0.7,0.3,0.8c0.4,0.2,0.9,0.3,1.3,0.1
		C834.5,682.5,834.8,682,835.2,681.6z M913.3,283.7c1.1-1.4,1.1-1.4,0-2.7C912.2,282.5,912.2,282.5,913.3,283.7z M418.4,638.8
		c0.5-0.9,1-1.4,0.9-1.8c-0.1-0.4-0.7-0.9-1.1-1c-0.3-0.1-1.1,0.5-1,0.6C417.4,637.2,417.8,637.8,418.4,638.8z M335.4,784.8
		c-0.4,0.4-0.9,0.6-1,1c-0.1,0.3,0.3,0.9,0.6,1c0.6,0.2,1.3,0.1,1.2-0.8C336.2,785.6,335.7,785.3,335.4,784.8z M585.5,634.8
		c-0.5,0.4-0.8,0.6-1.1,0.9c0.3,0.3,0.5,0.8,0.9,0.8c0.3,0,0.7-0.4,1-0.6C586,635.5,585.8,635.2,585.5,634.8z M915.7,589.6
		c-0.3,0.9-0.7,1.5-0.6,1.9c0.1,0.4,0.8,0.7,1.3,1c0.2-0.6,0.5-1.1,0.5-1.7C916.8,590.5,916.3,590.2,915.7,589.6z M1097.8,591.8
		c-0.2,0.3-0.6,0.5-0.6,0.6c0.2,0.3,0.5,0.6,0.7,0.9c0.2-0.2,0.5-0.5,0.7-0.7C1098.4,592.3,1098.1,592.1,1097.8,591.8z M773.1,701.3
		c-0.6-0.3-1-0.7-1.2-0.6c-0.3,0.1-0.5,0.6-0.8,0.9c0.3,0.2,0.7,0.6,1,0.6C772.3,702.2,772.6,701.8,773.1,701.3z M898,564.5
		c-0.3-0.5-0.5-0.9-0.8-1.1c-0.1-0.1-0.6,0.2-0.6,0.3c0,0.4,0.1,0.8,0.2,1.2C897.1,564.8,897.5,564.7,898,564.5z"/>
	<path d="M872.5,483.1c-1.5,0.7-2.5,0.3-3.5-0.4c-3-1.9-6-3.7-8.9-5.7c-14.1-9.5-26.9-20.6-39.1-32.4
		c-14.6-14.1-28.2-29.3-41.8-44.3c-29.8-33-59.6-66-89.3-99c-5-5.6-9.8-11.4-14.5-17.2c-4.1-5.1-7.5-10.8-10-16.9
		c-3.2-7.7-4.9-15.6-3.3-23.9c0.4-2,1-4,1.8-5.9c2.3-5.3,6.5-8.2,12-9.2c4.6-0.8,9.2-0.5,13.8,0.6c13.1,3,25.1,8.5,36.4,15.6
		c15,9.4,28,21.3,39.6,34.6c10.6,12.1,19.8,25.1,28.3,38.7c8.6,13.8,16.5,28.1,23.8,42.7c14.4,28.7,28.8,57.5,41.7,86.9
		c4.2,9.5,7.9,19.2,11.8,28.8c0.5,1.3,1,2.7,1.3,4.1C872.8,481.1,872.5,482.2,872.5,483.1z"/>
	<path d="M1005.2,537.8c-2-2.2-2.2-2.9-1.2-4.1c0.9-1.2,2.1-1.5,3.3-0.7c0.8,0.5,1.4,1.2,1.8,1.5c3.6-0.9,6.8-2,10.1-2.4
		c7.8-1,14.8,1.3,20.9,6.4c4.7,4,6.4,9,5.1,15c-1.3,5.6-3.2,11-6.3,16c-2.7,4.3-6.1,7.7-10.7,10.1c-8.8,4.5-17.9,2.7-24.1-5
		c-5.8-7.3-7.9-15.6-6.1-24.7C999,544.5,1000.4,542.2,1005.2,537.8z"/>
	<path d="M883.4,236.2c-5.5-1.3-8.7-4-10.9-7.9c-1.3-2.3-2.7-4.7-1.5-7.7c2.1,0.1,3.2,1.6,4.4,2.8
		C878.8,226.8,881.5,230.7,883.4,236.2z"/>
	<path d="M859.8,572.4c0.1-4.1,3-5.9,5.8-7.6c3.4-2.1,4.4-2.2,7.4-1.1c-1.2,2.9-4.1,5.5-8.9,7.9
		C862.8,572.2,861.5,573.5,859.8,572.4z"/>
	<path d="M771.7,650.8c4.1-4,8.5-5.9,13.8-4.9c0.7,1.5,0.1,2.5-0.9,3.2c-3.4,2.3-7.1,3.4-11.2,3.3c-0.3,0-0.6-0.2-0.9-0.4
		C772.3,651.8,772.2,651.5,771.7,650.8z"/>
	<path d="M519.7,584.7c-1.8,0-3.6,0.1-5.3,0c-0.7-0.1-1.6-0.4-2.1-0.9c-0.4-0.3-0.6-1.1-0.6-1.7c0-0.3,0.5-0.8,0.8-1
		c0.4-0.2,0.9-0.3,1.4-0.3c3.2-0.1,6.4-0.2,9.5-0.1c1.2,0.1,2.3,0.8,3.4,1.3c0.3,0.1,0.4,0.9,0.3,1.2c-0.1,0.4-0.6,0.9-0.9,0.9
		C524,584.4,521.8,584.5,519.7,584.7z"/>
	<path d="M402.3,620.2c1.8-5.6,4.9-8.1,9.5-8.9c0.6-0.1,1.7,0.2,2,0.7c0.3,0.5,0.3,1.6,0,2.2c-0.4,0.8-1.1,1.6-1.9,2
		C409.2,617.8,406.2,618.8,402.3,620.2z"/>
	<path d="M879.5,249c1.8,2.5,4.7,8.5,5,10.4c0.2,0.9-0.8,2-1.7,1.8c-0.9-0.2-1.9-0.5-2.5-1.1c-1.3-1.2-2-2.9-2.1-4.7
		C878.1,253.1,877.8,250.9,879.5,249z"/>
	<path d="M1071.5,645.4c-0.4-0.5-1.1-1.1-1.3-1.9c-0.2-0.5,0.1-1.3,0.5-1.7c2.1-2.4,4.7-3.7,7.9-3.8c1,0,1.7,1.1,1.4,2
		c-0.1,0.3-0.2,0.6-0.4,0.9C1078.5,642.7,1074.1,645.3,1071.5,645.4z"/>
	<path d="M913.3,243.9c-4.7-3.8-5.8-8-3-11.5c2.1,1,2.9,2.8,3.5,4.8C914.4,239.4,915,241.6,913.3,243.9z"/>
	<path d="M394.1,728.8c0.7-0.5,1.1-1.1,1.6-1.2c3.4-0.9,6.3,0.6,8.8,2.6c0.4,0.3,0.5,1.3,0.3,1.7c-0.3,0.6-1,1.5-1.6,1.5
		c-1.2,0.1-2.6,0-3.7-0.5C397.4,732.1,395.6,730.8,394.1,728.8z"/>
	<path d="M1102.5,575.8c1.4,4.4-0.1,8.2-2.7,11.7c-0.2,0.3-0.9,0.4-1.2,0.3c-0.3-0.1-0.8-0.7-0.7-1c0.2-2.3,0.6-4.7,0.8-7
		c0.2-1.9,1.3-3.2,2.8-4.1C1101.6,575.6,1102,575.8,1102.5,575.8z"/>
	<path d="M1117.1,565c-0.2,1.9-0.3,3.4-0.7,4.8c-0.1,0.5-0.8,1-1.3,1.1c-0.5,0.1-1.1-0.4-1.7-0.7c-0.1-0.1-0.3-0.2-0.3-0.4
		c-0.3-2.5-0.6-4.9-0.8-7.4c0-0.4,0.7-1,1.2-1.2c1-0.4,2.1-0.2,2.5,0.7C1116.7,562.9,1116.9,564.2,1117.1,565z"/>
	<path d="M571.4,637.3c-2.3,2.5-4.8,2.9-7.6,2.8c-1.4-0.1-2.3-1-2.6-2.4c-0.2-1,0.3-2.1,1.2-2.3c2.6-0.6,5.3-0.9,7.8,0.5
		C570.6,636.1,570.8,636.6,571.4,637.3z"/>
	<path d="M848.8,508.4c2.5,2,4,4.6,4.5,7.6c0.1,0.6-0.2,1.7-0.7,2c-0.5,0.3-1.6,0.2-2.2-0.2c-2.5-1.8-3.6-5.7-2.6-9
		C847.8,508.8,848.1,508.8,848.8,508.4z"/>
	<path d="M888.3,196.3c-2.1,0.3-3.2-0.9-4-2.3c-1-1.8-1.8-3.7-0.7-5.8c1.8-0.3,2.9,0.7,3.6,1.9C888.4,192,889.3,194,888.3,196.3z"/>
	<path d="M287,861.1c-1.2,2.4-2.7,3.7-4.7,4.3c-1.3,0.4-2.8,0.4-4.2-0.8c1-2.3,3.2-3.3,5-5C284.3,860.1,285.4,860.6,287,861.1z"/>
	<path d="M728.9,814.4c0.4-3.6,2.1-5.7,4.6-7.2c0.4-0.3,1.3-0.2,1.7,0.1c0.7,0.4,0.9,1.2,0.6,2.1
		C734.7,812.2,732.6,813.9,728.9,814.4z"/>
	<path d="M1056.9,580.4c-0.6,2-1.7,2.9-3,3.5c-1.5,0.7-3.3,0.3-4.2-1c-0.4-0.6-0.5-1.5-0.4-2.2c0.1-0.9,1-1.1,1.8-1.1
		C1052.9,579.8,1054.8,579.5,1056.9,580.4z"/>
	<path d="M376.6,677.6c0.3,2.2,1,4.5-0.7,6.6c-0.3,0.4-1,0.8-1.5,0.8c-0.5-0.1-1.1-0.6-1.4-1.1c-1.3-2.6-0.2-5.2,2.5-6.6
		C375.7,677.3,376.1,677.5,376.6,677.6z"/>
	<path d="M779.6,689.1c1.1,2.1,0.1,3.9-0.7,5.5c-0.8,1.5-1.9,2.9-4,3c-0.9-1.9-0.1-3.5,0.7-5C776.5,690.9,777.6,689.6,779.6,689.1z"
		/>
	<path d="M559.1,704.2c0.7-2.4,2.1-3.5,4-4.1c1.5-0.5,1.7-0.4,3.8,1C565.3,704.1,564.1,704.7,559.1,704.2z"/>
	<path d="M716.8,833.9c0.6,4.1-1,6.1-3.6,7.8c-1.6-0.9-1.9-2.2-1.4-3.6c0.3-0.8,0.9-1.7,1.6-2.3
		C714.2,835.1,715.3,834.7,716.8,833.9z"/>
	<path d="M1103.2,647.9c-1.3,2.1-2.7,3.2-4.6,3.9c-1.6-0.8-1.1-2-0.8-3.2c0.3-1.3,1-2.3,2.3-2.7c0.4-0.1,1,0,1.3,0.2
		C1102.1,646.6,1102.5,647.2,1103.2,647.9z"/>
	<path d="M860.5,180.9c-0.9,0.1-2.1-1.1-2-2.2c0.2-1.7,1.1-2.9,2.8-3.4c0.4-0.1,1.3,0.3,1.5,0.7c0.7,1.8,0.2,3.5-1.3,4.5
		C861.1,180.8,860.8,180.8,860.5,180.9z"/>
	<path d="M1069.9,595.7c-1.8,0.4-3.6,0.5-5.4-0.3c-0.9-0.4-1.1-1.9-0.3-2.3c1.1-0.5,2.3-1,3.5-1.1
		C1069.6,591.8,1070.2,592.9,1069.9,595.7z"/>
	<path d="M629.2,666.3c0.2-1.8,1.4-2.7,2.9-3.2c0.5-0.2,1.3-0.1,1.7,0.3c0.4,0.3,0.5,1.1,0.5,1.7c-0.1,1.2-0.8,2-1.9,2.4
		C631.5,667.8,631.2,667.8,629.2,666.3z"/>
	<path d="M264.2,894.5c-0.1,0.3-0.2,0.8-0.4,1.2c-0.4,0.7-1,1.3-1.9,1c-1.5-0.5-2.4-2.1-2.2-3.8c0.1-0.8,0.6-1.4,1.6-1.4
		C263.1,891.5,264.3,892.7,264.2,894.5z"/>
	<path d="M764.6,769.3c-0.1,1.3-1.3,2.2-2.7,2.1c-1.3,0-2-1.2-1.8-2.8c0.2-1.3,1.1-2.1,2.3-2C763.7,766.8,764.7,768,764.6,769.3z"/>
	<path d="M367.4,733.9c0.2,2.4-2.1,3.9-3.9,3c-0.3-0.2-0.6-0.7-0.6-1.1c0-1.2,0.4-2.2,1.4-2.8c0.5-0.3,1.3-0.5,1.7-0.3
		C366.6,732.9,367.1,733.6,367.4,733.9z"/>
	<path d="M623.1,640.2c0.9-0.8,1.6-1.5,2.3-2.1c1.8,0.4,2.6,1.4,3.1,2.8c0.3,1-0.5,1.9-1.5,1.7C625.6,642.4,624.2,642,623.1,640.2z"
		/>
	<path d="M391.3,643.5c-0.5,1.1-0.7,2.2-1.3,3c-0.6,0.9-2.2,0.8-2.9,0.1c-0.6-0.7-0.5-1.8,0.3-2.5
		C388.3,643.1,389.4,642.5,391.3,643.5z"/>
	<path d="M759,772.9c-1.2,1.5-2.1,2.9-4.1,3.7c-0.8-1.7-0.7-3.1-0.2-4.6C756.2,771.2,757.5,771.2,759,772.9z"/>
	<path d="M751.5,778.4c-0.1,1.7-1,2.7-2.4,3.3c-0.8,0.3-1.5-0.2-1.8-1c-0.5-1-0.1-1.8,0.5-2.5c0.8-0.9,1.8-1.2,2.9-0.8
		C751.1,777.5,751.3,778.1,751.5,778.4z"/>
	<path d="M250.7,685.9c-0.1,1-1.3,2-2.4,1.9c-1-0.1-1.7-1.3-1.5-2.6c0.1-1,1-2,1.7-2C249.6,683.3,250.8,684.7,250.7,685.9z"/>
	<path d="M410.2,641.6c0.1,1.5-1,2.8-1.9,2.8c-0.9,0-2.2-1.2-2.2-2.2c-0.1-0.9,1.2-2.2,2.3-1.9C409.1,640.5,409.7,641.3,410.2,641.6
		z"/>
	<path d="M331.5,840.9c1.4-0.8,2.6-1.6,3.9-2.4c1.3,1.9,1.3,2.4-0.2,3.6C334.1,843.1,333.8,843,331.5,840.9z"/>
	<path d="M808.7,771.5c1.7,0.7,1.7,2.1,1.3,3.5c-0.2,0.6-0.9,1.4-1.5,1.5c-0.8,0.1-1.3-0.7-1.4-1.5
		C806.9,773.5,807,772.2,808.7,771.5z"/>
	<path d="M893.7,501.9c-0.7,0.9-1.1,1.6-1.8,2.3c-0.1,0.1-0.9-0.1-1.2-0.4c-0.7-0.7-0.9-1.6-0.4-2.6c0.4-0.7,1-1.4,1.8-1.1
		C892.7,500.3,893.1,501.1,893.7,501.9z"/>
	<path d="M1095.9,570.3c-0.9,1-1.6,1.8-2.4,2.7c-1.4-1.1-2.8-1.8-2.7-3.8C1092.6,568.5,1093.9,569.3,1095.9,570.3z"/>
	<path d="M377.6,643.2c-0.2,1.6-1.1,2.4-2.3,2.4c-1,0-1.9-0.8-1.9-1.7c-0.1-1.1,1.2-2.1,2.7-1.8
		C376.7,642.2,377.2,642.9,377.6,643.2z"/>
	<path d="M844.5,167.2c-1.3-1.6-2.3-2.6-3-3.7c-0.2-0.3,0-1.1,0.2-1.2c0.4-0.3,1.2-0.5,1.6-0.3C844.9,162.9,845.6,164.3,844.5,167.2
		z"/>
	<path d="M381.4,653.9c0,1.5-0.9,2.3-2.2,2.4c-0.8,0.1-1.6-0.7-1.5-1.4c0.1-1.1,1-2.5,1.9-2.3C380.3,652.7,380.9,653.5,381.4,653.9z
		"/>
	<path d="M816.4,742.8c0,1.5-0.8,2.5-1.9,2.6c-0.9,0.1-1.6-0.8-1.6-1.9c0-1.3,0.9-2.5,1.8-2.1C815.4,741.6,816,742.4,816.4,742.8z"
		/>
	<path d="M420.7,615.9c-1.5,0.1-2.3-0.5-2.4-1.5c-0.1-0.9,0.2-1.6,1.1-1.8c1.2-0.3,2.9,1,2.6,2.1
		C421.9,615.2,421.1,615.6,420.7,615.9z"/>
	<path d="M673.5,597.3c-0.8,1.7-1.9,2.1-3.2,1.5c-1.4-0.7-1.6-1.8-0.8-3.5C670.9,596,672.2,596.7,673.5,597.3z"/>
	<path d="M344.8,747.9c0.1-0.6,0.1-1.2,0.3-1.7c0.3-0.9,0.9-1.8,2-1.6c0.9,0.1,1.4,1.7,1,2.8C347.9,748.4,347.3,748.6,344.8,747.9z"
		/>
	<path d="M766.6,718.3c-0.8,1.6-2,1.9-3.4,1.1c-0.4-0.2-0.6-1-0.6-1.5c0-0.3,0.6-0.7,0.9-0.8C764.7,716.8,766,716.8,766.6,718.3z"/>
	<path d="M742.4,730.9c-1.5-1.7-1.7-2.3-0.9-3.2c0.9-0.9,1.9-1,3-0.1C744.8,729.4,744.1,730.5,742.4,730.9z"/>
	<path d="M904.6,338c1.3,0.7,1.7,1.9,1.3,3.2c-0.1,0.5-0.9,1-1.4,1c-0.4,0-1.2-0.6-1.3-1C903,339.9,903.1,338.6,904.6,338z"/>
	<path d="M497.3,631.6c0.5-0.5,0.9-1.2,1.5-1.5c0.4-0.3,1.3-0.3,1.6-0.1c0.5,0.5,0.9,1.3,0.9,1.9c0,0.4-0.7,1-1.2,1.1
		C498.9,633.3,497.9,633,497.3,631.6z"/>
	<path d="M884.3,286.7c-0.4-0.6-0.9-1.2-1.1-1.9c-0.2-1-0.6-2.2,0.7-2.8c0.1-0.1,0.3-0.1,0.4-0.1c1,0.3,1.6,1.5,1.5,3.1
		c0,0.4-0.3,0.9-0.6,1.2C885.1,286.3,884.8,286.4,884.3,286.7z"/>
	<path d="M682.5,773.8c0.1,1.7-1.4,3.2-2.9,3.1c-0.2,0-0.6-0.4-0.6-0.6c-0.2-1.5,1.3-3.3,2.7-3.2C682,773.1,682.3,773.6,682.5,773.8
		z"/>
	<path d="M854.9,192.7c-1,0.7-1.6,1.4-2.3,1.6c-0.8,0.2-1.5-1-1.3-2c0.2-1,1.1-1.7,2-1.3C853.8,191.2,854.1,191.9,854.9,192.7z"/>
	<path d="M690.1,770c-0.7,1.4-1.8,1.7-3.1,1.3c-0.5-0.1-1-0.9-1-1.3c0-0.4,0.6-1.2,1.1-1.3C688.2,768.4,689.5,768.5,690.1,770z"/>
	<path d="M339.7,759.4c-0.1,0.3-0.2,0.8-0.5,1.1c-0.3,0.3-0.8,0.5-1.2,0.4c-0.4-0.1-0.9-0.4-1-0.8c-0.2-0.6-0.2-1.3,0-1.8
		c0.2-0.5,0.8-1.1,1.2-1.1c0.4,0,0.9,0.6,1.3,1.1C339.7,758.5,339.7,758.9,339.7,759.4z"/>
	<path d="M1099.1,606.9c-0.6,1.6-1.8,1.6-3.1,1.3c-0.4-0.1-1-0.5-1-0.8c0-0.6,0.2-1.4,0.6-1.6C1097,605,1098.3,605.4,1099.1,606.9z"
		/>
	<path d="M790.2,710.2c-1.6-2.6-1.6-2.6,2.2-4.2C793.3,708.1,791.7,708.9,790.2,710.2z"/>
	<path d="M1052.1,558.2c-0.2,0.9-0.2,1.5-0.5,2c-0.2,0.4-0.7,0.7-1.1,0.7c-0.4,0-0.9-0.4-1.1-0.7c-0.3-0.5-0.3-1.2-0.3-1.8
		c0-0.9,0.6-1.6,1.4-1.5C1051.1,557.1,1051.6,557.8,1052.1,558.2z"/>
	<path d="M673.6,780.3c-1,0.6-1.8,1.3-2.5,1.3c-0.4,0-1-1.1-1.2-1.7c-0.2-0.9,1.1-1.8,1.9-1.4C672.4,778.7,672.8,779.4,673.6,780.3z
		"/>
	<path d="M741.6,787.2c-0.9-0.4-1.7-1.1-1.1-2.1c0.7-1.2,1.8-1.7,3.1-0.7C743.6,785.9,742.9,786.8,741.6,787.2z"/>
	<path d="M871.1,522.4c-1.1,0.7-1.6,1.2-2.2,1.4c-0.9,0.2-1.8-0.5-1.7-1.2c0.2-0.8,0.7-1.5,1.6-1.4
		C869.4,521.3,870,521.8,871.1,522.4z"/>
	<path d="M728.8,712.6c-0.4,0.7-0.6,1.3-1,1.8c-0.3,0.3-0.9,0.4-1.2,0.3c-0.3-0.1-0.8-0.6-0.8-1c0-0.6,0.1-1.2,0.4-1.7
		c0.2-0.3,0.9-0.6,1.2-0.5C727.9,711.6,728.3,712.2,728.8,712.6z"/>
	<path d="M719.6,715.5c1.3-0.1,1.8,0.4,2.1,1.2c0.3,0.9-0.4,1.9-1.4,1.9c-1,0.1-2-0.8-1.7-1.7C718.7,716.4,719.3,715.9,719.6,715.5z
		"/>
	<path d="M474.6,646.4c0.5,0.8,1.1,1.3,1.1,1.8c0.1,0.9-1,1.8-2,1.6c-0.5-0.1-1.2-1-1.1-1.2C473.1,647.9,473.8,647.3,474.6,646.4z"
		/>
	<path d="M885.1,293.9c-0.7,0.6-1.1,1.2-1.6,1.3c-0.8,0.2-1.8-0.7-1.7-1.7c0.1-0.5,0.9-1.3,1-1.2
		C883.5,292.7,884.1,293.2,885.1,293.9z"/>
	<path d="M864.2,512.5c1.6,0.6,1.8,1.5,1.1,2.7c-0.3,0.4-1,0.6-1.5,0.9c-0.2-0.5-0.7-1.1-0.6-1.6
		C863.3,513.8,863.8,513.1,864.2,512.5z"/>
	<path d="M400.7,622c0.8,2.7,0.1,3.4-3,3.1C398,623.3,399.1,622.5,400.7,622z"/>
	<path d="M664.2,755.7c-1.3,0.1-2.1,0.4-2.7,0.2c-0.4-0.1-0.9-0.8-1-1.3c-0.1-0.6,1.1-1.3,1.8-0.9C663,754,663.3,754.7,664.2,755.7z
		"/>
	<path d="M490.2,585.4c-0.3-0.2-1-0.5-1.5-1c-0.2-0.2,0-0.9,0.3-1.2c0.6-0.7,1.4-0.8,2.1-0.3c0.5,0.3,1.1,0.9,1.1,1.3
		C492.3,585.3,491.4,585.3,490.2,585.4z"/>
	<path d="M382.8,654.1c0-1.6-0.1-2.2,0-2.8c0.2-0.5,0.6-1,1-1.4c0.1-0.1,0.6,0,0.8,0.2c0.5,0.6,0.8,1.3,0.2,2.1
		C384.5,652.7,384,653,382.8,654.1z"/>
	<path d="M1082.2,597.1c-0.5,0.4-1.1,1-1.9,1.3c-0.7,0.2-1.5-0.6-1.5-1.4c0.1-0.9,0.7-1.3,1.5-1.4
		C1081.2,595.6,1081.9,595.8,1082.2,597.1z"/>
	<path d="M846,219.1c0.3-0.8,0.4-1.4,0.8-1.9c0.2-0.3,0.8-0.4,1.2-0.4c0.2,0,0.6,0.3,0.6,0.6c0.1,0.6,0.2,1.3,0,1.8
		c-0.2,0.5-0.7,0.9-1.1,1.3C847.1,220.1,846.6,219.6,846,219.1z"/>
	<path d="M905.4,243.9c-1.4,0.4-2.2,0.8-3,0.7c-0.8,0-1.3-0.7-1.3-1.6c0-0.8,0.8-1.1,1.8-0.7C903.6,242.7,904.2,243.2,905.4,243.9z"
		/>
	<path d="M770.5,714.5c-0.6,0.6-1,1.1-1.5,1.3c-0.9,0.3-1.7-0.7-1.7-1.8c0-0.8,0.9-1.6,1.6-1.3C769.5,713,769.8,713.7,770.5,714.5z"
		/>
	<path d="M952.5,564.2c0.2,0.2,0.7,0.6,0.8,1.1c0.2,0.9-0.8,1.7-1.8,1.4c-0.5-0.1-1-0.7-1.2-1.1C950.1,564.8,951,564.1,952.5,564.2z
		"/>
	<path d="M237.6,903.2c-0.8-0.5-1.5-1-2.2-1.6c-0.1-0.1,0.1-0.6,0.2-0.8c0.7-0.7,1.9-0.5,2.9,0.5c0.2,0.2,0.3,0.7,0.2,0.8
		C238.6,902.6,238.2,902.8,237.6,903.2z"/>
	<path d="M862.1,233.4c0.4,0.7,0.8,1.2,0.9,1.7c0.1,0.8-0.8,1.5-1.5,1.3c-0.7-0.2-1.3-1.1-1-1.8C860.8,234.2,861.4,234,862.1,233.4z
		"/>
	<path d="M909.2,273.1c-0.4-1.2-0.8-2.2-1.4-3.9c1.1,0.3,1.8,0.2,2.1,0.6C911.3,271,911.2,271.5,909.2,273.1z"/>
	<path d="M897.3,290c-0.3,0.2-0.7,0.7-1.2,0.8c-0.8,0.2-1.7-0.6-1.5-1.4c0.2-0.5,0.7-1,1.2-1.2C896.7,287.9,897.4,288.7,897.3,290z"
		/>
	<path d="M981.6,506.9c1.7,0.5,1.7,1.6,1.3,2.9c-0.1,0.2-0.9,0.4-1.1,0.2C980.6,509.1,980.7,508,981.6,506.9z"/>
	<path d="M363.7,682.9c-1.3-0.1-2-0.8-1.7-1.4c0.3-0.5,0.8-0.9,1.3-1.1c0.6-0.2,1.5,0.9,1.3,1.5
		C364.4,682.4,363.9,682.7,363.7,682.9z"/>
	<path d="M1115.1,578.6c-0.8,0.5-1.3,0.9-1.8,1c-0.8,0.1-1.6-0.8-1.2-1.5c0.2-0.5,1-1.2,1.2-1.1
		C1113.9,577.2,1114.4,577.9,1115.1,578.6z"/>
	<path d="M326.2,729.9c2.1,1.1,2.1,1.1,1.4,3.9c-0.6-0.6-1.3-1.1-1.5-1.7C325.9,731.6,326.2,730.8,326.2,729.9z"/>
	<path d="M914.4,267.4c-0.3,0.1-0.8,0.6-1.3,0.5c-0.8-0.2-1.4-0.9-1-1.7c0.2-0.4,0.9-0.7,1.4-0.7
		C914.4,265.4,914.8,266.2,914.4,267.4z"/>
	<path d="M276,694.6c1.2,1.4,1.1,2.3-0.1,3.2C274.4,696.9,274.7,695.9,276,694.6z"/>
	<path d="M603.1,756.6c0-0.6-0.3-1.2-0.1-1.5c0.3-0.4,1-0.6,1.5-0.8c0.1,0,0.6,0.4,0.5,0.5c-0.1,0.4-0.3,0.9-0.7,1.2
		C604.1,756.3,603.6,756.4,603.1,756.6z"/>
	<path d="M835.2,681.6c-0.4,0.5-0.7,0.9-1,1.1c-0.4,0.1-0.9,0-1.3-0.1c-0.2-0.1-0.3-0.7-0.3-0.8c0.3-0.3,0.8-0.6,1.2-0.6
		C834.2,681.1,834.6,681.4,835.2,681.6z"/>
	<path d="M913.3,283.7c-1.1-1.2-1.1-1.2,0-2.7C914.4,282.3,914.4,282.3,913.3,283.7z"/>
	<path d="M418.4,638.8c-0.6-1.1-1-1.6-1.2-2.3c0-0.1,0.8-0.7,1-0.6c0.5,0.2,1,0.6,1.1,1C419.4,637.4,418.9,637.9,418.4,638.8z"/>
	<path d="M335.4,784.8c0.4,0.4,0.8,0.7,0.9,1.1c0.1,0.9-0.6,1-1.2,0.8c-0.3-0.1-0.7-0.7-0.6-1C334.4,785.5,334.9,785.2,335.4,784.8z
		"/>
	<path d="M585.5,634.8c0.3,0.4,0.5,0.8,0.8,1.1c-0.3,0.2-0.7,0.7-1,0.6c-0.3-0.1-0.6-0.5-0.9-0.8C584.7,635.4,585,635.1,585.5,634.8
		z"/>
	<path d="M915.7,589.6c0.6,0.6,1.1,0.9,1.1,1.2c0,0.6-0.3,1.1-0.5,1.7c-0.4-0.3-1.1-0.6-1.3-1C915,591.1,915.4,590.5,915.7,589.6z"
		/>
	<path d="M1097.8,591.8c0.3,0.3,0.6,0.5,0.9,0.8c-0.2,0.2-0.5,0.5-0.7,0.7c-0.2-0.3-0.5-0.6-0.7-0.9
		C1097.2,592.3,1097.5,592,1097.8,591.8z"/>
	<path d="M773.1,701.3c-0.5,0.4-0.8,0.9-1,0.9c-0.3,0-0.7-0.4-1-0.6c0.3-0.3,0.5-0.8,0.8-0.9C772.1,700.6,772.5,701,773.1,701.3z"/>
	<path d="M898,564.5c-0.5,0.2-0.9,0.3-1.3,0.4c-0.1-0.4-0.2-0.8-0.2-1.2c0-0.1,0.6-0.4,0.6-0.3C897.5,563.7,897.7,564,898,564.5z"/>
</g>
</svg>
