<?xml version="1.0" encoding="utf-8"?>
<!-- Generator: Adobe Illustrator 22.0.1, SVG Export Plug-In . SVG Version: 6.00 Build 0)  -->
<svg version="1.1" xmlns="http://www.w3.org/2000/svg" xmlns:xlink="http://www.w3.org/1999/xlink" x="0px" y="0px"
	 viewBox="0 0 1844.4 1296.8" enable-background="new 0 0 1844.4 1296.8" xml:space="preserve">
<g id="Cave_4_copy" display="none">
	<g id="ozivFg.tif_1_" display="inline">
		<g>
			<path fill="#00ADEE" d="M857.9,0.9c-6.2,1.9-12.5,3.3-18.4,5.8c-8.1,3.4-16.4,6.8-23.5,11.7c-22.8,15.7-46.8,29.3-71,42.7
				c-16.6,9.1-34.2,13.4-53.1,12c-22.7-1.7-45.4-1.4-68,0.5c-11.1,1-22,3.8-32.8,6.3c-5.9,1.3-9.4,5.3-10.9,11.4
				c-2.8,11-6.2,21.9-9,32.9c-0.8,3.1-0.7,6.7-0.2,9.9c0.9,6.2,2.1,12.4,3.9,18.4c2.6,9,9.4,14.6,17,19.2c8.3,5,17.5,7.3,27.4,6.8
				c28.1-1.7,56.1-3.3,84.2-4.4c14.3-0.6,28.6-0.2,42.8-0.2c9.4,0,18.9,0.8,28.3,0.4c17.7-0.7,34.5,2.8,50,10.8
				c22.5,11.8,46.5,18.1,71.1,22.8c7.2,1.4,14.4,3.3,21.3,5.7c20,6.7,40.7,8.4,61.4,8.7c31.2,0.5,62.5-0.1,93.7,0.5
				c11.6,0.2,23.1,2.4,34.6,4.2c8.1,1.3,14,11.3,12.3,19.2c-1.1,5.1-5.3,8.3-11.4,9.5c-4.1,0.8-7.9,2.7-12,3.7
				c-5.1,1.2-10.3,2.7-15.5,2.9c-15.7,0.8-31.5,0.6-47.3,1.6c-23.8,1.4-47.5,3.6-71.3,5.1c-23.3,1.5-46.5,4.9-70.1,3.4
				c-23.8-1.5-47.7-1.1-71.6-1c-7.4,0-14.9,1.6-22.3,2.7c-17.2,2.6-33.9,2-50.4-4.4c-6.7-2.6-14.2-3.8-21.4-5c-14-2.2-28-3.5-42-5.7
				c-16.1-2.5-31.6-0.1-47,4.6c-16.2,4.9-32.6,9.2-48.9,13.8c-9.3,2.6-18.8,4.9-27.8,8.3c-6.5,2.5-12.6,6.4-18.6,10
				c-2.1,1.3-3.5,3.7-6.1,6.5c3,0.7,4.9,1.2,6.8,1.5c16.3,1.8,31,7.7,44,17.6c4.3,3.2,8.6,5.4,14,5.8c29.1,2.2,58.1,4.3,87.2,6.8
				c9.2,0.8,18.4,2,27.4,4.1c16.2,3.7,32.3,7.9,49.1,8.5c1.9,0.1,3.9,0.2,5.6,0.9c9.5,3.8,19.4,2.7,29.2,3.1
				c10.1,0.4,20.3,1.2,30.2,2.9c16.5,2.8,32.9,5.1,49.6,1.8c10.2-2,20.4-1.9,30.8-0.7c6.1,0.7,12.4,0.4,18.5-0.2
				c19.7-1.8,39.4-0.6,59.1,0.5c8.2,0.5,16.5-0.1,24.7-0.3c5.1-0.1,8.6,2.2,9.2,6.3c0.7,4-1.9,7.8-6.6,9c-2.5,0.7-5.2,0.9-7.9,0.9
				c-14.7,0-29.5-0.7-44.2-0.2c-16.9,0.5-33.7,2.1-50.6,3.1c-9.8,0.5-18.9,3.8-28.3,6.4c-7.8,2.1-16.3,2-24.4,2.1
				c-5.6,0.1-11.2-0.8-16.7-1.4c-11.9-1.2-23.7-0.9-35.6,0.9c-13.8,2.1-27.8,3.1-41.7,4.7c-4.1,0.5-8.1,1.3-12.1,2.4
				c-23.7,6.9-48,10-72,4.4c-19.3-4.6-38.5-6.5-58.1-6.4c-8.7,0.1-17.4,0-26.1-0.4c-18.9-0.7-36.4,3.2-53.8,11.2
				c-25.8,11.9-50.2,26.3-75.6,39c-6.9,3.4-13,8.3-19.4,12.5c0.2,0.5,0.4,1.1,0.5,1.6c1.6,0,3.2,0,4.9,0c18.1,0.2,36.2,0.2,54.3,0.5
				c7.1,0.1,13.5,2.3,19.5,6.3c2.3,1.5,5.1,2.6,7.8,2.9c20.2,2.4,40.3,4.3,60.7,1.5c13.7-1.9,27.6-1.9,41.4-2.4
				c6-0.2,9.7,2.3,10.8,6.5c1.2,4.3-0.8,8.9-6.1,11.4c-8.2,3.9-16.9,6.8-25.2,10.5c-16,7.1-32.6,11-50.2,10c-3.6-0.2-7.3-1-10.9-1.5
				c-6.6-1-13.2-2.3-19.9-3.1c-15.8-1.8-31.5-4.2-47.3-4.9c-12.1-0.5-24.4,0.4-36.4,2.2c-9.8,1.5-19.3,5-28.8,8.3
				c-14.1,4.9-22.8,15.7-30.5,27.9c-11.6,18.2-12.6,37.9-10.4,58.6c1.8,16.6,2.2,113.4,3.1,130.2c0.1,1.9-0.1,3.8-0.5,5.7
				c-1.3,6.5-6.3,10.7-12.6,10.7c-6.3,0-11.4-4.1-12.7-10.6c-0.6-2.8-0.5-5.8-1-8.7c-0.4-2.7-1.8-4.2-4.9-3.1
				c-4.7,1.7-9-0.1-13.7-1.3c-5.3-1.4-11.2-0.8-16.8-1c-3.2-0.1-6.4-0.2-9.6-0.3c-1.9-0.1-3.8-0.5-5.6-0.1c-5.6,1-10-0.6-14.1-4.3
				c-1.6-1.4-4.3-1.6-6.5-2.4c0-206.6,0-493.1,0-699.7C477.2,0.9,667.5,0.9,857.9,0.9z"/>
			<path fill="#00ADEE" d="M1589.9,190.8c-8.1-5.2-16.5-10.1-24.3-15.8c-16-11.7-29.3-26.1-40.5-42.4c-1.6-2.4-3.7-4.6-6.1-6.3
				c-14.2-10-23.7-23.7-31.3-38.9c-2.2-4.4-4.8-8.7-7.6-12.7c-5.6-7.8-13.5-12.2-22.9-14.6c-5.8-1.5-11.6-3.4-17.1-5.7
				c-12.4-5.2-24.6-4.4-37.1-0.3c-17.9,5.9-35.9,11.5-53.9,17c-42.9,13.2-86.6,16.6-130.9,8.9c-3.6-0.6-7.1-1.8-10.6-2.9
				c-11.2-3.5-22.3-7.4-33.6-10.6c-11.5-3.3-22.8-7-32.5-14.3c-1.4-1-3-1.9-4.6-2.5c-18.6-7.7-37.1-15.4-56.5-21
				c-29.7-8.6-59.1-18.1-88.6-27.3c-0.4-0.1-0.8-0.4-1.1-0.6c199.8,0,399.6,0,599.4,0C1589.9,64.3,1589.9,127.5,1589.9,190.8z"/>
		</g>
	</g>
	<linearGradient id="SVGID_1_" gradientUnits="userSpaceOnUse" x1="256.5078" y1="1302.9141" x2="1622.1328" y2="-15.8359">
		<stop  offset="0" style="stop-color:#20388F"/>
		<stop  offset="0.1858" style="stop-color:#23378D"/>
		<stop  offset="0.3314" style="stop-color:#2D3488"/>
		<stop  offset="0.4634" style="stop-color:#3E2F7F"/>
		<stop  offset="0.5873" style="stop-color:#552873"/>
		<stop  offset="0.7056" style="stop-color:#731E63"/>
		<stop  offset="0.8197" style="stop-color:#98134F"/>
		<stop  offset="0.9283" style="stop-color:#C40538"/>
		<stop  offset="0.9649" style="stop-color:#D4002F"/>
	</linearGradient>
	<rect x="267.9" y="-18" display="inline" fill="url(#SVGID_1_)" width="1332.8" height="1332.8"/>
</g>
<g id="right_fix">
</g>
<g id="Cave_4">
	<g id="ozivFg.tif">
		<g>
			<linearGradient id="SVGID_2_" gradientUnits="userSpaceOnUse" x1="267.9375" y1="357.1573" x2="1119.3066" y2="357.1573">
				<stop  offset="0" style="stop-color:#404041"/>
				<stop  offset="1" style="stop-color:#231F20"/>
			</linearGradient>
			<path fill="url(#SVGID_2_)" d="M852-18c-6.3,1.9-12.8,3.4-18.9,6c-8.3,3.5-16.8,7-24.1,12c-23.3,16.1-47.9,30-72.6,43.8
				c-16.9,9.4-35,13.7-54.3,12.3c-23.2-1.7-46.4-1.4-69.5,0.6c-11.3,1-22.5,3.9-33.6,6.4c-6,1.4-9.6,5.4-11.2,11.7
				c-2.8,11.3-6.4,22.5-9.2,33.8c-0.8,3.2-0.7,6.8-0.2,10.1c1,6.4,2.2,12.7,3.9,18.9c2.6,9.2,9.6,15,17.4,19.7
				c8.5,5.1,17.9,7.5,28.1,6.9c28.7-1.7,57.4-3.4,86.1-4.6c14.6-0.6,29.2-0.3,43.8-0.2c9.6,0,19.3,0.8,28.9,0.4
				c18.1-0.7,35.3,2.8,51.1,11.1c23,12.1,47.5,18.6,72.8,23.4c7.4,1.4,14.7,3.4,21.8,5.8c20.4,6.8,41.6,8.6,62.8,9
				c31.9,0.6,63.9-0.1,95.8,0.5c11.8,0.2,23.6,2.4,35.4,4.4c8.2,1.4,14.3,11.6,12.5,19.7c-1.1,5.3-5.4,8.5-11.6,9.8
				c-4.2,0.8-8.1,2.8-12.3,3.8c-5.2,1.3-10.5,2.7-15.8,3c-16.1,0.8-32.3,0.7-48.3,1.6c-24.3,1.4-48.6,3.7-73,5.3
				c-23.9,1.5-47.5,5.1-71.7,3.5c-24.3-1.5-48.8-1.1-73.2-1c-7.6,0-15.3,1.6-22.8,2.8c-17.6,2.7-34.7,2.1-51.6-4.5
				c-6.9-2.7-14.5-3.9-21.9-5.1c-14.3-2.2-28.7-3.6-43-5.8c-16.5-2.5-32.3-0.1-48.1,4.7c-16.6,5.1-33.3,9.4-50,14.2
				c-9.5,2.7-19.2,5-28.5,8.5c-6.7,2.5-12.9,6.5-19,10.2c-2.2,1.3-3.6,3.8-6.3,6.7c3.1,0.7,5,1.3,6.9,1.5c16.7,1.8,31.7,7.9,45,18
				c4.4,3.3,8.8,5.6,14.3,6c29.7,2.3,59.5,4.5,89.2,7c9.4,0.8,18.9,2.1,28,4.2c16.6,3.8,33.1,8.1,50.2,8.7c1.9,0.1,4,0.2,5.8,0.9
				c9.7,3.9,19.8,2.8,29.9,3.2c10.3,0.4,20.7,1.3,30.9,3c16.9,2.9,33.6,5.3,50.7,1.9c10.4-2.1,20.9-1.9,31.5-0.7
				c6.2,0.7,12.7,0.4,18.9-0.2c20.2-1.8,40.3-0.7,60.4,0.6c8.4,0.5,16.9-0.1,25.3-0.3c5.2-0.1,8.8,2.3,9.4,6.5c0.7,4.1-2,8-6.8,9.3
				c-2.6,0.7-5.4,0.9-8,0.9c-15.1,0-30.1-0.7-45.2-0.2c-17.3,0.6-34.5,2.2-51.8,3.2c-10.1,0.6-19.3,3.9-28.9,6.5
				c-7.9,2.2-16.6,2-25,2.2c-5.7,0.1-11.4-0.8-17.1-1.4c-12.2-1.3-24.3-1-36.5,0.9c-14.1,2.2-28.4,3.2-42.6,4.8
				c-4.2,0.5-8.3,1.3-12.3,2.5c-24.2,7.1-49.1,10.3-73.6,4.5c-19.8-4.7-39.4-6.7-59.5-6.5c-8.9,0.1-17.8,0-26.7-0.4
				c-19.3-0.8-37.2,3.3-55,11.5c-26.4,12.2-51.4,27-77.3,40c-7,3.5-13.3,8.5-19.9,12.8c0.2,0.6,0.4,1.1,0.5,1.6c1.7,0,3.3,0,5,0
				c18.5,0.2,37,0.2,55.6,0.6c7.2,0.1,13.8,2.4,19.9,6.4c2.3,1.5,5.2,2.6,7.9,3c20.6,2.5,41.2,4.5,62.1,1.6
				c14-1.9,28.2-1.9,42.4-2.5c6.1-0.2,9.9,2.4,11.1,6.6c1.2,4.4-0.8,9.1-6.2,11.7c-8.4,4-17.3,7-25.8,10.8
				c-16.4,7.2-33.3,11.3-51.3,10.3c-3.7-0.2-7.4-1-11.1-1.6c-6.8-1-13.6-2.3-20.4-3.1c-16.1-1.9-32.2-4.4-48.4-5.1
				c-12.4-0.5-25,0.4-37.2,2.3c-10,1.6-19.8,5.1-29.4,8.5c-14.4,5.1-23.4,16.2-31.2,28.6c-11.9,18.7-12.9,38.9-10.7,60.1
				c1.8,17.1,2.2,116.4,3.2,133.5c0.1,1.9-0.1,3.9-0.5,5.8c-1.3,6.7-6.5,11-12.9,11c-6.5,0-11.7-4.2-13-10.9c-0.6-2.9-0.5-6-1-8.9
				c-0.4-2.8-1.8-4.3-5-3.2c-4.9,1.7-9.2-0.1-14-1.4c-5.4-1.4-11.4-0.8-17.2-1c-3.3-0.1-6.5-0.2-9.8-0.3c-1.9-0.1-3.9-0.5-5.8-0.1
				c-5.7,1.1-10.2-0.6-14.5-4.4c-1.6-1.5-4.4-1.7-6.6-2.5c0-211.9,0-505.8,0-717.7C462.6-18,657.3-18,852-18z"/>
			<linearGradient id="SVGID_3_" gradientUnits="userSpaceOnUse" x1="987.6587" y1="79.4151" x2="1600.6875" y2="79.4151">
				<stop  offset="0" style="stop-color:#404041"/>
				<stop  offset="1" style="stop-color:#231F20"/>
			</linearGradient>
			<path fill="url(#SVGID_3_)" d="M1600.7,176.8c-8.3-5.4-16.9-10.3-24.8-16.2c-16.4-12-29.9-26.8-41.4-43.5
				c-1.7-2.4-3.8-4.7-6.2-6.4c-14.6-10.3-24.2-24.3-32.1-39.9c-2.3-4.5-4.9-8.9-7.8-13c-5.7-8.1-13.8-12.6-23.4-15
				c-6-1.5-11.9-3.5-17.5-5.9c-12.7-5.3-25.1-4.5-37.9-0.3c-18.3,6-36.7,11.8-55.1,17.4c-43.9,13.5-88.5,17-133.9,9.2
				c-3.7-0.6-7.3-1.8-10.9-3c-11.5-3.6-22.8-7.6-34.4-10.9c-11.8-3.4-23.3-7.2-33.2-14.7c-1.4-1.1-3.1-1.9-4.7-2.6
				c-19-7.9-38-15.8-57.8-21.5c-30.4-8.8-60.4-18.6-90.6-28c-0.4-0.1-0.8-0.4-1.2-0.6c204.3,0,408.7,0,613,0
				C1600.7,47,1600.7,111.9,1600.7,176.8z"/>
		</g>
	</g>
</g>
<g id="Cave_3">
	<g id="tTWn53.tif">
		<g>
			<linearGradient id="SVGID_4_" gradientUnits="userSpaceOnUse" x1="933.9375" y1="632.4533" x2="933.9375" y2="1297.9609">
				<stop  offset="0" style="stop-color:#404041"/>
				<stop  offset="1" style="stop-color:#231F20"/>
			</linearGradient>
			<path fill="url(#SVGID_4_)" d="M267.9,648.6c9.5,2.2,18.9,5.4,28.5,6.2c19.9,1.8,40,2.4,60,3.3c32.2,1.4,64.1-1.5,95.6-8
				c16.3-3.4,32.7-6.7,48.9-10.5c19.3-4.5,38.7-7.3,58.5-7.1c27.2,0.2,54.5-0.3,81.7,0.1c41.1,0.6,82.2,1.4,123.2,4.6
				c10.3,0.8,20.7,2,30.9,4.1c19.4,4,25.9,16.7,21.9,36c-1.9,9.3-15.9,16.5-26.7,15.1c-10.4-1.3-20.4,0.2-29.5,5.6
				c-2.2,1.3-4.3,2.7-6.7,3.7c-10,4.1-18.5,10.1-25.9,17.9c-6.3,6.5-14.2,10.8-23.2,12.9c-7.3,1.8-14.7,3.4-22,4.8
				c-11.7,2.3-20.7,8.8-27.7,17.7c-2.8,3.6-3.8,8.8-4.9,13.4c-3.4,14.2-12.5,23.2-26.1,28.4c-2.9,1.1-6,1.8-9.1,2.7
				c-6.7,2-7.1,2.5-7.8,9.4c-1,10.4-1.4,21-3.2,31.3c-2.6,15.1-11.4,26.7-24.2,35.5c-8.1,5.5-14.8,11.8-17.4,21.5
				c-1.7,6.7-5.8,12.1-11.1,16.7c-2,1.7-3.9,3.7-5.4,5.9c-10.6,15.9-25.8,26.2-43.6,33.4c-2.6,1.1-5.3,3.5-6.5,6
				c-9.5,19.6-10.5,40.3-5.9,61.2c3.2,14.7,12.5,21.4,27.9,21.9c7.2,0.2,14.5,0.3,21.7,0.9c14.2,1.3,26.1-3.5,37.2-11.8
				c14.1-10.6,30.6-15.3,48.3-16.3c3.8-0.2,7.8,0.5,11.5,1.4c8.9,2.2,17.7,4.8,26.5,7.2c13.7,3.7,25,11.3,35.2,20.6
				c1.7,1.5,2.7,3.8,3.6,5.9c2.7,6.9,7,12.5,13.6,16.4c1.6,1,3.2,2.3,4.2,3.9c5.6,8.2,13.2,14.3,21,20.3
				c9.3,7.3,18.1,15.3,27.3,22.8c6.2,5.1,12.4,10.3,19.2,14.4c5.9,3.6,11,7.8,14.6,13.4c3.1,4.8,7.4,7.5,12.6,9.3
				c34.7,11.9,69.9,21.8,107,23.7c19.8,1,39.7,2.4,59.4,4.3c26.3,2.5,52.8,4.6,78.8,9c19.5,3.4,39,5,58.5,7.6
				c22.5,3.1,39.8,14.9,55.4,30.4c14.5,14.4,28.9,29,46.6,40.3c19.8,12.7,40.1,13.2,61.7,7.8c7.8-2,15.3-5.3,23.1-7.4
				c26.2-7,52.5-13.8,78.8-20.5c7-1.8,14-3.3,21.1-4.7c5.8-1.1,11.2-0.4,17.1,1.8c7.8,2.9,16.2,4.8,24.5,5.3
				c21.9,1.4,43.9,1.4,65.7-2.3c9.8-1.7,19.5-3.6,29.2-5.3c15.9-2.8,27.6-12,35.6-24.7c5.5-8.7,5-19.2,1.6-28.9
				c-5.6-15.7-11.5-31.3-17.5-46.8c-3.5-9.1-7.3-18.2-11.2-27.1c-1.2-2.6-2.7-5.4-4.9-7.2c-13.7-11.3-24.2-25-34.8-38.9
				c-6.3-8.2-14.3-15.4-21.8-22.7c-12.3-12-21.7-26-31.6-39.8c-2.6-3.6-5.4-7-8.3-10.4c-1.6-2-1.8-3.6-0.1-5.8
				c11.7-14.9,25.9-25.9,45.3-30.6c17.3-4.2,34.7-5.4,52.3-6.5c7.4-0.4,14.8-0.5,22.1-1.1c8.3-0.6,15.8,1,22.8,5.4
				c2.8,1.7,5.9,2.9,8.8,4.3c0,112.6,0,225.2,0,337.8c-443.9,0-887.8,0-1332,0C267.9,1081.5,267.9,865,267.9,648.6z M582.1,806
				c-0.3-0.5-0.6-1-0.9-1.6c-4.1,1.4-8.7,2-12.3,4.2c-10.1,6.1-20.3,12.1-29.4,19.4c-15.3,12.3-21.7,29.3-23.2,48.1
				c-0.2,2.4,0.3,3.9,3.4,3.5c17.9-1.8,33.1-9.2,46.2-20.8c2.3-2,4-4.7,5.6-7.3C580.3,837.5,579.7,821.4,582.1,806z M506.2,929.5
				c0.3,0.2,0.7,0.3,1,0.5c0.8-0.5,1.9-0.9,2.5-1.6c5.6-7.3,11.4-14.5,16.6-22.1c2.3-3.2,0.5-6.4-2.2-5.4c-4.2,1.6-9.8,3.5-11.4,6.8
				C509.3,914.4,508.2,922.2,506.2,929.5z"/>
		</g>
	</g>
</g>
<g id="Cave_2">
	<g id="_x32_ZU6Qj.tif">
		<g>
			<linearGradient id="SVGID_5_" gradientUnits="userSpaceOnUse" x1="1188.256" y1="820.9208" x2="749.062" y2="1581.6273">
				<stop  offset="0" style="stop-color:#404041"/>
				<stop  offset="1" style="stop-color:#231F20"/>
			</linearGradient>
			<path fill="url(#SVGID_5_)" d="M286.8,1175.4c3.9,2.5,8.1,4.6,11.8,7.4c14.6,11.1,30.5,16.9,48.9,17.2
				c27.4,0.5,52.3-7.8,76.6-19.8c20.5-10,41-20,61.6-29.6c15.2-7.1,30.6-13.6,46-20.3c11.4-5,23.3-5.4,35.4-4.4
				c16.7,1.4,32.8,5.6,48.7,11c9.2,3.1,18.1,3,27-0.9c16.9-7.6,32.8-6,49,3.9c12.4,7.5,23.3,16.7,33.5,27
				c8.8,8.8,16.8,18.5,25.7,27.3c7.5,7.3,15.5,14.1,23.6,20.7c4.5,3.6,9.9,4.8,15.7,3.9c10.7-1.8,21.3-4.2,32.1-5.2
				c14.1-1.3,28.4-2.6,42.6-1.8c15.4,0.9,29.6,7.6,43.4,14.4c14.4,7.1,27.4,16.7,40.4,26.3c15.9,11.8,33.8,20,52.7,25.7
				c12.4,3.8,25,4,37.5,3.2c6.7-0.4,13.3-4,19.8-6.6c12.2-4.9,24-11,36.4-15c13.2-4.2,27.1-4.5,40.9-5.2c20.7-1.1,36.3,9.4,51.4,22
				c9,7.5,18.8,13.8,30.4,15.8c8.6,1.5,17.2,3.7,25.9,4.2c14.1,0.8,27-2.2,35.9-16c7.4-11.5,15.3-22.7,23.8-33.4
				c15.7-19.8,33.5-25.8,57.6-21.9c1,0.2,2,0.6,2.9,1.1c10.4,5.3,20.8,10.6,31.2,15.9c2.5,1.3,5.1,2.5,7.8,3.6
				c15.4,6,30.4-0.1,38-15.5c3.4-7,7.5-12.9,14.6-16.4c8.7-4.3,16.8-2.9,23.6,4.4c4.9,5.2,9.9,10.4,15.5,14.8c2.5,2,6.3,2.9,9.5,3.1
				c17.3,1.1,31.7-6.7,44.7-17.8c2.8-2.3,5.1-5.2,7.6-7.9c3.7-4,6-8.6,7-14.3c1.6-8.8,4.3-17.3,6.4-25.9c0.9-3.6,1.1-7.4,2-11.1
				c2.7-11,5.6-22.1,8.6-33c0.8-2.8,2.5-5.3,3.6-8.1c1.5-3.9,2.8-7.9,4-11.8c0.9-2.9,1.8-5.9,2.5-8.9c1-4.2,2.1-8.5,2.6-12.8
				c1-9.1,2.7-17.9,7-26c0,85.4,0,170.8,0,256.1c-437.7,0-875.4,0-1313.1,0C286.8,1268.3,286.8,1221.8,286.8,1175.4z"/>
		</g>
	</g>
</g>
<g id="rabit1">
	<g>
		<path d="M300.1,1109.3c14.6-33.9,35.8-62,69.3-79.3c1.3-0.7,2.4-1.7,3.6-2.4c5.6-3.6,7.3-8.7,3.3-14c-6.4-8.4-12.8-17-20.7-23.8
			c-11.2-9.6-20.2-20.8-24.9-34.2c-3.2-9.2-2.8-20.1-2.3-30.1c0.3-5.7,3.9-11.3,11.3-11.3c14.7,0,24,6.6,29.1,20.7
			c1.9,5.1,3.8,10.4,4.8,15.7c3.9,19.4,13.8,35.9,24.2,52.4c5.3,8.5,11.3,11.6,21.9,8.1c-0.4-3.3-0.2-7-1.5-10.1
			c-3.6-8.7-7.7-17.3-12-25.8c-6.9-13.5-11.6-27.6-11.4-42.9c0.1-7.1,5.3-14.2,11.3-16c6.7-2,10.9,1.9,15.1,6.4
			c6.7,7.1,9.4,15.5,9.8,24.9c0.8,16.8,1.4,33.6,2.1,50.4c0.2,4.7,0,9.7,1.5,14.1c4.7,14.6,10.2,28.9,15.2,43.4
			c1.6,4.8,3,9.8,3.5,14.9c1.6,14.1-7.5,24.1-21.6,24.2c-7.3,0.1-14.6,0-21.6,0c-2.1,3.4-3.4,6.6-5.7,8.9
			c-5.1,5.4-4.5,10.3-1.8,16.9c3.2,7.6,5.1,16.1,5.9,24.3c0.5,5.7,2.3,9.4,6.9,12.6c7.2,5,14.2,10.4,21.1,15.8
			c4.7,3.7,9.3,7.8,6.7,14.6c-1.5,4.1-12.4,6-18,3.5c-2.3-1-4.2-2.9-6.3-4.3c-2.1-1.4-4.2-2.7-7.7-4.9c2.4,15.4,2.4,29.6,12,41.4
			c1.6,2,2.1,7.4,0.7,8.6c-2.2,2-6.8,3.3-9.5,2.4c-8.1-2.9-12.9-9.6-14.6-17.9c-2-10.4-3.5-20.9-5-31.4c-0.7-5.2-1.5-10-8.3-11.1
			c-0.9,1.7-2.2,3-2.2,4.2c0.8,17.8-0.3,36,9.6,52.2c2.7,4.4,5.3,9.6,0.1,13.8c-5.8,4.6-10.6,0.8-14.1-3.6c-3.8-4.9-6.7-10.6-10-16
			c-7.6,9.8-10.5,10.7-21.1,5.2c-6.8-3.5-13.6-7.2-20-11.4c-17-11.3-29.9-25.8-34.5-46.2c-1.4-6-2.1-12.1-3.1-17.9
			c-17.9-4-25.4-12.4-23.1-25.3c2.3-13.1,9.8-17.1,29.5-15.4C298.8,1111.9,299.5,1110.6,300.1,1109.3z M345.6,1197.1
			c1.5,3.5,5,6.6,8.4,8.8c4.1,2.7,9,4.2,15.4,7.1c-3.5-11.9-6.6-22.8-10.1-34.6C346,1183.8,342.2,1188.9,345.6,1197.1z
			 M418.5,1047.6c4,1,6.6-2.1,5.8-5.7c-0.5-2.5-3.4-5.9-5.6-6.3c-2.1-0.3-4.8,2.8-8.7,5.5C413.9,1044.1,415.9,1046.9,418.5,1047.6z"
			/>
	</g>
</g>
<g id="Cave_1">
	<g id="NQh7e9.tif">
		<g>
			<linearGradient id="SVGID_6_" gradientUnits="userSpaceOnUse" x1="268.3092" y1="1070.4559" x2="1032.3717" y2="1068.8934">
				<stop  offset="0" style="stop-color:#404041"/>
				<stop  offset="0.2369" style="stop-color:#373637"/>
				<stop  offset="1" style="stop-color:#231F20"/>
			</linearGradient>
			<path fill="url(#SVGID_6_)" d="M252.9,1029.4c3.7-7.9,8.5-15.6,10.8-23.9c2.2-7.7,2.3-16.1,2.3-24.2c-0.1-16.4-1.6-32.7-1.2-49
				c0.4-18.1,1.9-36.2,3.8-54.3c1.4-13.4,1.1-27.1,6.2-40c0.4-1.1,0.5-2.3,0.5-3.5c0.2-6,1.9-8.7,6-9.5c4.2-0.8,10.8,1.9,11.9,6.1
				c1.3,4.5,1.6,9.3,1.5,14c-0.4,26,1.3,51.8,5.3,77.4c3.7,23.2,9.1,46.1,13.2,69.3c2.7,15,4.1,30.1,6.4,45.1
				c1.7,10.9,4.4,21.6,6.1,32.5c3.9,25.9,7.5,51.9,11.2,77.8c1.1,7.9,3.3,15.1,10.2,20.2c1.5,1.1,3,2.6,4,4.2c3,5,7.4,6.4,12.9,6.1
				c6.1-0.2,8.6-1.4,10.5-7.1c1.8-5.2,3.4-10.6,4.1-16c1.3-10.8,5.4-20.6,10.7-29.7c4.4-7.5,12.5-12.1,21.2-12.7
				c4.4-0.3,9.5,3,13.7,5.7c8.7,5.6,14.5,14,20.2,22.5c2,2.9,4.6,5.4,7,8c2,2.2,4.5,3.9,6.4,6.2c12.3,15.2,28.4,25.9,44.4,36.6
				c9.2,6.2,16.1,3.5,19.6-7.2c3.6-10.9,6.7-21.9,9.8-32.9c2-7.2,4.3-14.2,9.5-19.9c3.4-3.7,7.4-5.9,12.2-7
				c10.5-2.4,21.1-2.4,31.7-0.9c6.7,1,13.1,3.6,17.2,8.9c11.5,14.8,24.6,28.6,30.7,47c1.7,5,4.4,9.8,7.4,14.2
				c6.5,9.5,15.7,16.2,25.5,22.3c6.6,4.1,14.1,3.6,21.4,3.9c7.8,0.3,15.6,0,23.3,0.2c12.8,0.4,23.5,6.4,32.5,14.6
				c10.3,9.4,21.3,17.9,31.5,27.5c11.8,11.2,26.4,19.4,39.9,28.8c3.6,2.4,7.9,1.2,11.6-2.8c6.1-6.7,13.4-11.3,22-13.9
				c12.1-3.6,24.2-4.4,35.7,1.8c9,4.9,17.9,10,26.5,15.7c17.8,11.8,37.3,18.6,58.5,21.1c3.5,0.4,6.9,1.7,10.4,2.5
				c-242,0-484.1,0-726.1,0C252.9,1219.6,252.9,1124.5,252.9,1029.4z"/>
		</g>
	</g>
</g>
<g id="rabit2">
	<g>
		<path d="M642.3,561.6c14.6-33.9,35.8-62,69.3-79.3c1.3-0.7,2.4-1.7,3.6-2.4c5.6-3.6,7.3-8.7,3.3-14c-6.4-8.4-12.8-17-20.7-23.8
			c-11.2-9.6-20.2-20.8-24.9-34.2c-3.2-9.2-2.8-20.1-2.3-30.1c0.3-5.7,3.9-11.3,11.3-11.3c14.7,0,24,6.6,29.1,20.7
			c1.9,5.1,3.8,10.4,4.8,15.7c3.9,19.4,13.8,35.9,24.2,52.4c5.3,8.5,11.3,11.6,21.9,8.1c-0.4-3.3-0.2-7-1.5-10.1
			c-3.6-8.7-7.7-17.3-12-25.8c-6.9-13.5-11.6-27.6-11.4-42.9c0.1-7.1,5.3-14.2,11.3-16c6.7-2,10.9,1.9,15.1,6.4
			c6.7,7.1,9.4,15.5,9.8,24.9c0.8,16.8,1.4,33.6,2.1,50.4c0.2,4.7,0,9.7,1.5,14.1c4.7,14.6,10.2,28.9,15.2,43.4
			c1.6,4.8,3,9.8,3.5,14.9c1.6,14.1-7.5,24.1-21.6,24.2c-7.3,0.1-14.6,0-21.6,0c-2.1,3.4-3.4,6.6-5.7,8.9
			c-5.1,5.4-4.5,10.3-1.8,16.9c3.2,7.6,5.1,16.1,5.9,24.3c0.5,5.7,2.3,9.4,6.9,12.6c7.2,5,14.2,10.4,21.1,15.8
			c4.7,3.7,9.3,7.8,6.7,14.6c-1.5,4.1-12.4,6-18,3.5c-2.3-1-4.2-2.9-6.3-4.3c-2.1-1.4-4.2-2.7-7.7-4.9c2.4,15.4,2.4,29.6,12,41.4
			c1.6,2,2.1,7.4,0.7,8.6c-2.2,2-6.8,3.3-9.5,2.4c-8.1-2.9-12.9-9.6-14.6-17.9c-2-10.4-3.5-20.9-5-31.4c-0.7-5.2-1.5-10-8.3-11.1
			c-0.9,1.7-2.2,3-2.2,4.2c0.8,17.8-0.3,36,9.6,52.2c2.7,4.4,5.3,9.6,0.1,13.8c-5.8,4.6-10.6,0.8-14.1-3.6c-3.8-4.9-6.7-10.6-10-16
			c-7.6,9.8-10.5,10.7-21.1,5.2c-6.8-3.5-13.6-7.2-20-11.4c-17-11.3-29.9-25.8-34.5-46.2c-1.4-6-2.1-12.1-3.1-17.9
			c-17.9-4-25.4-12.4-23.1-25.3c2.3-13.1,9.8-17.1,29.5-15.4C641,564.2,641.7,563,642.3,561.6z M687.9,649.4c1.5,3.5,5,6.6,8.4,8.8
			c4.1,2.7,9,4.2,15.4,7.1c-3.5-11.9-6.6-22.8-10.1-34.6C688.2,636.1,684.5,641.2,687.9,649.4z M760.8,499.9c4,1,6.6-2.1,5.8-5.7
			c-0.5-2.5-3.4-5.9-5.6-6.3c-2.1-0.3-4.8,2.8-8.7,5.5C756.1,496.5,758.2,499.2,760.8,499.9z"/>
	</g>
</g>
<g id="Layer_8">
	<linearGradient id="SVGID_7_" gradientUnits="userSpaceOnUse" x1="0" y1="657.375" x2="286.8167" y2="657.375">
		<stop  offset="0" style="stop-color:#231F20"/>
		<stop  offset="0.3685" style="stop-color:#262223"/>
		<stop  offset="0.6843" style="stop-color:#2F2D2E"/>
		<stop  offset="0.98" style="stop-color:#3F3F40"/>
		<stop  offset="1" style="stop-color:#404041"/>
	</linearGradient>
	<rect fill="url(#SVGID_7_)" width="286.8" height="1314.8"/>
	<linearGradient id="SVGID_8_" gradientUnits="userSpaceOnUse" x1="666.2401" y1="590.9136" x2="1849.3529" y2="590.9136">
		<stop  offset="0" style="stop-color:#231F20"/>
		<stop  offset="0.3685" style="stop-color:#262223"/>
		<stop  offset="0.6843" style="stop-color:#2F2D2E"/>
		<stop  offset="0.98" style="stop-color:#3F3F40"/>
		<stop  offset="1" style="stop-color:#404041"/>
	</linearGradient>
	<path fill="url(#SVGID_8_)" d="M1631.3-16.8c1-17.9-1.1-39.7-14-58.8c-67.8-99.6-804.1,12.2-875.1,39.9
		c-309.3,121,425,99.6,445.4,103.8c45.4,9.4,157.5,0.3,223.4,27.4c65.3,26.8,81.3,33.7,101.6,58.6c6.7,8.2,26,33.9,32.8,104.7
		c9.6,99.6-21.6,122.8-23.4,209.4c-2.6,124.6,59.4,196.5,28.1,221.9c-27.6,22.4-91.3-20.8-101.6-4.7c-13,20.4,90.6,87.4,75,151.6
		c-5.2,21.2-18.7,22.7-23.4,48.4c-5.3,29,6.8,54.3,31.2,95.3c24.1,40.5,42.4,71.2,56.3,91.8V1298h261.8V-16.8H1631.3z"/>
</g>
</svg>
